<svg version="1.1" viewBox="0.0 0.0 720.0 540.0" fill="none" stroke="none" stroke-linecap="square" stroke-miterlimit="10" xmlns:xlink="http://www.w3.org/1999/xlink" xmlns="http://www.w3.org/2000/svg"><clipPath id="p.0"><path d="m0 0l720.0 0l0 540.0l-720.0 0l0 -540.0z" clip-rule="nonzero"/></clipPath><g clip-path="url(#p.0)"><path fill="#ffffff" fill-opacity="0.0" d="m0 0l720.0 0l0 540.0l-720.0 0z" fill-rule="evenodd"/><path fill="#ffffff" fill-opacity="0.0" d="m0 30.598425l720.0 0l0 419.21262l-720.0 0z" fill-rule="evenodd"/><path fill="#ffffff" d="m305.8086 50.661552q0 -1.984375 0.90625 -3.140625q0.921875 -1.171875 2.4375 -1.171875q1.546875 0 2.40625 1.09375l0.078125 -0.9375l1.3125 0l0 8.25q0 1.640625 -0.96875 2.578125q-0.96875 0.953125 -2.609375 0.953125q-0.921875 0 -1.796875 -0.390625q-0.875 -0.390625 -1.328125 -1.0625l0.75 -0.875q0.921875 1.15625 2.265625 1.15625q1.0625 0 1.640625 -0.59375q0.59375 -0.59375 0.59375 -1.6875l0 -0.71875q-0.859375 1.0 -2.359375 1.0q-1.484375 0 -2.40625 -1.1875q-0.921875 -1.203125 -0.921875 -3.265625zm1.453125 0.15625q0 1.4375 0.578125 2.25q0.59375 0.8125 1.65625 0.8125q1.359375 0 2.0 -1.234375l0 -3.859375q-0.65625 -1.21875 -1.984375 -1.21875q-1.0625 0 -1.65625 0.828125q-0.59375 0.8125 -0.59375 2.421875zm11.9609375 -3.015625q-0.328125 -0.0625 -0.71875 -0.0625q-1.421875 0 -1.921875 1.21875l0 6.0l-1.453125 0l0 -8.453125l1.40625 0l0.03125 0.96875q0.703125 -1.125 2.015625 -1.125q0.421875 0 0.640625 0.109375l0 1.34375zm6.2265625 7.15625q-0.125 -0.25 -0.203125 -0.890625q-1.0 1.046875 -2.40625 1.046875q-1.25 0 -2.046875 -0.703125q-0.796875 -0.71875 -0.796875 -1.796875q0 -1.328125 1.0 -2.046875q1.0 -0.734375 2.828125 -0.734375l1.40625 0l0 -0.671875q0 -0.75 -0.453125 -1.203125q-0.453125 -0.453125 -1.34375 -0.453125q-0.765625 0 -1.296875 0.390625q-0.515625 0.390625 -0.515625 0.953125l-1.453125 0q0 -0.640625 0.4375 -1.21875q0.453125 -0.59375 1.21875 -0.9375q0.78125 -0.34375 1.703125 -0.34375q1.453125 0 2.28125 0.734375q0.828125 0.71875 0.859375 2.0l0 3.890625q0 1.171875 0.296875 1.859375l0 0.125l-1.515625 0zm-2.390625 -1.109375q0.671875 0 1.28125 -0.34375q0.609375 -0.359375 0.890625 -0.921875l0 -1.734375l-1.140625 0q-2.65625 0 -2.65625 1.5625q0 0.671875 0.453125 1.0625q0.453125 0.375 1.171875 0.375zm7.25 -7.34375l0.046875 1.0625q0.96875 -1.21875 2.53125 -1.21875q2.671875 0 2.703125 3.015625l0 5.59375l-1.453125 0l0 -5.59375q0 -0.921875 -0.421875 -1.359375q-0.40625 -0.4375 -1.265625 -0.4375q-0.703125 0 -1.234375 0.375q-0.53125 0.375 -0.828125 0.984375l0 6.03125l-1.453125 0l0 -8.453125l1.375 0zm7.109375 4.15625q0 -1.953125 0.921875 -3.125q0.921875 -1.1875 2.40625 -1.1875q1.484375 0 2.359375 1.015625l0 -4.40625l1.4375 0l0 12.0l-1.328125 0l-0.0625 -0.90625q-0.875 1.0625 -2.421875 1.0625q-1.46875 0 -2.390625 -1.203125q-0.921875 -1.203125 -0.921875 -3.140625l0 -0.109375zm1.4375 0.15625q0 1.4375 0.59375 2.25q0.59375 0.8125 1.640625 0.8125q1.375 0 2.015625 -1.234375l0 -3.875q-0.65625 -1.203125 -2.0 -1.203125q-1.0625 0 -1.65625 0.828125q-0.59375 0.8125 -0.59375 2.421875zm11.4453125 4.296875q-1.71875 0 -2.796875 -1.125q-1.078125 -1.140625 -1.078125 -3.03125l0 -0.265625q0 -1.25 0.46875 -2.234375q0.484375 -1.0 1.34375 -1.546875q0.875 -0.5625 1.875 -0.5625q1.65625 0 2.5625 1.09375q0.921875 1.078125 0.921875 3.09375l0 0.609375l-5.734375 0q0.03125 1.25 0.734375 2.015625q0.703125 0.765625 1.78125 0.765625q0.765625 0 1.296875 -0.3125q0.53125 -0.3125 0.921875 -0.828125l0.890625 0.6875q-1.0625 1.640625 -3.1875 1.640625zm-0.1875 -7.578125q-0.875 0 -1.46875 0.640625q-0.59375 0.625 -0.734375 1.78125l4.234375 0l0 -0.109375q-0.0625 -1.109375 -0.59375 -1.703125q-0.53125 -0.609375 -1.4375 -0.609375zm14.03125 5.171875q0 -0.578125 -0.4375 -0.90625q-0.4375 -0.328125 -1.546875 -0.5625q-1.09375 -0.234375 -1.734375 -0.5625q-0.640625 -0.328125 -0.953125 -0.78125q-0.3125 -0.453125 -0.3125 -1.078125q0 -1.03125 0.875 -1.75q0.890625 -0.71875 2.25 -0.71875q1.4375 0 2.328125 0.75q0.90625 0.734375 0.90625 1.890625l-1.453125 0q0 -0.59375 -0.515625 -1.015625q-0.5 -0.4375 -1.265625 -0.4375q-0.78125 0 -1.234375 0.34375q-0.4375 0.34375 -0.4375 0.890625q0 0.53125 0.40625 0.796875q0.421875 0.265625 1.5 0.515625q1.078125 0.234375 1.75 0.578125q0.671875 0.328125 1.0 0.796875q0.328125 0.46875 0.328125 1.15625q0 1.125 -0.90625 1.8125q-0.90625 0.6875 -2.359375 0.6875q-1.015625 0 -1.796875 -0.359375q-0.78125 -0.359375 -1.21875 -1.0q-0.4375 -0.65625 -0.4375 -1.40625l1.4375 0q0.046875 0.734375 0.578125 1.15625q0.546875 0.421875 1.4375 0.421875q0.828125 0 1.3125 -0.328125q0.5 -0.328125 0.5 -0.890625zm4.90625 2.25l-1.453125 0l0 -8.453125l1.453125 0l0 8.453125zm-1.5625 -10.703125q0 -0.34375 0.203125 -0.578125q0.21875 -0.25 0.640625 -0.25q0.421875 0 0.640625 0.25q0.21875 0.234375 0.21875 0.59375q0 0.34375 -0.21875 0.578125q-0.21875 0.234375 -0.640625 0.234375q-0.421875 0 -0.640625 -0.234375q-0.203125 -0.234375 -0.203125 -0.59375zm8.7890625 8.453125q0 -0.578125 -0.4375 -0.90625q-0.4375 -0.328125 -1.546875 -0.5625q-1.09375 -0.234375 -1.734375 -0.5625q-0.640625 -0.328125 -0.953125 -0.78125q-0.3125 -0.453125 -0.3125 -1.078125q0 -1.03125 0.875 -1.75q0.890625 -0.71875 2.25 -0.71875q1.4375 0 2.328125 0.75q0.90625 0.734375 0.90625 1.890625l-1.453125 0q0 -0.59375 -0.515625 -1.015625q-0.5 -0.4375 -1.265625 -0.4375q-0.78125 0 -1.234375 0.34375q-0.4375 0.34375 -0.4375 0.890625q0 0.53125 0.40625 0.796875q0.421875 0.265625 1.5 0.515625q1.078125 0.234375 1.75 0.578125q0.671875 0.328125 1.0 0.796875q0.328125 0.46875 0.328125 1.15625q0 1.125 -0.90625 1.8125q-0.90625 0.6875 -2.359375 0.6875q-1.015625 0 -1.796875 -0.359375q-0.78125 -0.359375 -1.21875 -1.0q-0.4375 -0.65625 -0.4375 -1.40625l1.4375 0q0.046875 0.734375 0.578125 1.15625q0.546875 0.421875 1.4375 0.421875q0.828125 0 1.3125 -0.328125q0.5 -0.328125 0.5 -0.890625zm5.296875 -8.25l0 2.046875l1.578125 0l0 1.109375l-1.578125 0l0 5.25q0 0.5 0.203125 0.765625q0.21875 0.25 0.71875 0.25q0.25 0 0.6875 -0.09375l0 1.171875q-0.5625 0.15625 -1.109375 0.15625q-0.96875 0 -1.46875 -0.578125q-0.484375 -0.59375 -0.484375 -1.671875l0 -5.25l-1.53125 0l0 -1.109375l1.53125 0l0 -2.046875l1.453125 0zm6.7734375 10.65625q-1.71875 0 -2.796875 -1.125q-1.078125 -1.140625 -1.078125 -3.03125l0 -0.265625q0 -1.25 0.46875 -2.234375q0.484375 -1.0 1.34375 -1.546875q0.875 -0.5625 1.875 -0.5625q1.65625 0 2.5625 1.09375q0.921875 1.078125 0.921875 3.09375l0 0.609375l-5.734375 0q0.03125 1.25 0.734375 2.015625q0.703125 0.765625 1.78125 0.765625q0.765625 0 1.296875 -0.3125q0.53125 -0.3125 0.921875 -0.828125l0.890625 0.6875q-1.0625 1.640625 -3.1875 1.640625zm-0.1875 -7.578125q-0.875 0 -1.46875 0.640625q-0.59375 0.625 -0.734375 1.78125l4.234375 0l0 -0.109375q-0.0625 -1.109375 -0.59375 -1.703125q-0.53125 -0.609375 -1.4375 -0.609375zm6.5078125 -1.03125l0.046875 0.9375q0.921875 -1.09375 2.5 -1.09375q1.78125 0 2.421875 1.359375q0.421875 -0.609375 1.09375 -0.984375q0.671875 -0.375 1.59375 -0.375q2.78125 0 2.828125 2.9375l0 5.671875l-1.4375 0l0 -5.578125q0 -0.90625 -0.421875 -1.359375q-0.40625 -0.453125 -1.390625 -0.453125q-0.796875 0 -1.328125 0.484375q-0.53125 0.484375 -0.625 1.296875l0 5.609375l-1.453125 0l0 -5.546875q0 -1.84375 -1.796875 -1.84375q-1.421875 0 -1.953125 1.21875l0 6.171875l-1.4375 0l0 -8.453125l1.359375 0zm17.882812 8.453125q-0.125 -0.25 -0.203125 -0.890625q-1.0 1.046875 -2.40625 1.046875q-1.25 0 -2.046875 -0.703125q-0.796875 -0.71875 -0.796875 -1.796875q0 -1.328125 1.0 -2.046875q1.0 -0.734375 2.828125 -0.734375l1.40625 0l0 -0.671875q0 -0.75 -0.453125 -1.203125q-0.453125 -0.453125 -1.34375 -0.453125q-0.765625 0 -1.296875 0.390625q-0.515625 0.390625 -0.515625 0.953125l-1.453125 0q0 -0.640625 0.4375 -1.21875q0.453125 -0.59375 1.21875 -0.9375q0.78125 -0.34375 1.703125 -0.34375q1.453125 0 2.28125 0.734375q0.828125 0.71875 0.859375 2.0l0 3.890625q0 1.171875 0.296875 1.859375l0 0.125l-1.515625 0zm-2.390625 -1.109375q0.671875 0 1.28125 -0.34375q0.609375 -0.359375 0.890625 -0.921875l0 -1.734375l-1.140625 0q-2.65625 0 -2.65625 1.5625q0 0.671875 0.453125 1.0625q0.453125 0.375 1.171875 0.375z" fill-rule="nonzero"/><path fill="#ffffff" fill-opacity="0.0" d="m305.1027 140.5614l0 0c-1.0802917 -8.313049 2.4665833 -16.542458 9.13562 -21.19619c6.6690063 -4.6537323 15.290558 -4.9156265 22.206207 -0.6745453l0 0c2.4497375 -4.8335495 6.933441 -8.170784 12.09494 -9.002251c5.1614685 -0.8314667 10.39447 0.9404907 14.116089 4.7798843l0 0c2.086853 -4.382408 6.1844177 -7.3268204 10.838684 -7.7884216c4.6542664 -0.46159363 9.206543 1.6249619 12.041412 5.519249l0 0c3.7702026 -4.64534 9.768707 -6.601227 15.399902 -5.021324c5.6312256 1.579895 9.8836975 6.411812 10.917419 12.404945l0 0c4.6191406 1.3192902 8.466797 4.6731186 10.548828 9.194946c2.0820618 4.5218353 2.1942444 9.768097 0.3076172 14.383316l0 0c4.548523 6.198761 5.6125183 14.458511 2.7949524 21.696884c-2.8175354 7.2383575 -9.093384 12.367859 -16.485443 13.474258c-0.052093506 6.7934723 -3.61026 13.027069 -9.3029785 16.298111c-5.692749 3.2710419 -12.6311035 3.0687256 -18.140778 -0.5289612l0 0c-2.3468323 8.136353 -8.952362 14.123001 -16.962769 15.373505c-8.0104065 1.2504883 -15.989655 -2.4593506 -20.490417 -9.526733l0 0c-5.5169983 3.4835358 -12.136963 4.48703 -18.366516 2.7841187c-6.229553 -1.7029114 -11.543976 -5.9687805 -14.744446 -11.835327l0 0c-5.6376953 0.6907959 -11.0885315 -2.3676758 -13.647339 -7.6575165c-2.5588074 -5.289856 -1.6808167 -11.684982 2.1981812 -16.01152l0 0c-5.028961 -3.0993195 -7.5950317 -9.249405 -6.3601074 -15.24324c1.2348938 -5.99382 5.990967 -10.473145 11.788086 -11.102203z" fill-rule="evenodd"/><path fill="#ffffff" fill-opacity="0.0" d="m299.5633 167.22723l0 0c2.373169 1.4625854 5.114746 2.1260376 7.8566284 1.9013062m3.591278 21.768265c1.1791077 -0.14448547 2.3348694 -0.4504242 3.437439 -0.90997314m29.671875 9.9608c-0.8293152 -1.3022308 -1.5236511 -2.6937714 -2.0711975 -4.1509247m39.525818 -1.6960907l0 0c0.42785645 -1.4833832 0.7050781 -3.0101013 0.82702637 -4.5546875m26.615692 -11.213898c0.055480957 -7.2326813 -3.8677368 -13.855026 -10.084503 -17.022491m23.774872 -18.147873c-1.0068054 2.46286 -2.5437622 4.647644 -4.4904175 6.383026m-6.3651123 -29.961945l0 0c0.17156982 0.99456024 0.25094604 2.004074 0.23709106 3.014534m-26.553955 -10.397858l0 0c-0.9404602 1.158783 -1.7153015 2.4537048 -2.300354 3.844452m-20.579956 -1.5757828l0 0c-0.5011902 1.0525131 -0.87545776 2.1662521 -1.1141357 3.3155594m-25.09726 0.90689087l0 0c1.4633484 0.89740753 2.8171387 1.9775391 4.0316467 3.2166595m-35.373077 18.654198l0 0c0.14889526 1.145752 0.38415527 2.2773743 0.70358276 3.3842926" fill-rule="evenodd"/><path stroke="#ffffff" stroke-width="1.0" stroke-linejoin="round" stroke-linecap="butt" d="m305.1027 140.5614l0 0c-1.0802917 -8.313049 2.4665833 -16.542458 9.13562 -21.19619c6.6690063 -4.6537323 15.290558 -4.9156265 22.206207 -0.6745453l0 0c2.4497375 -4.8335495 6.933441 -8.170784 12.09494 -9.002251c5.1614685 -0.8314667 10.39447 0.9404907 14.116089 4.7798843l0 0c2.086853 -4.382408 6.1844177 -7.3268204 10.838684 -7.7884216c4.6542664 -0.46159363 9.206543 1.6249619 12.041412 5.519249l0 0c3.7702026 -4.64534 9.768707 -6.601227 15.399902 -5.021324c5.6312256 1.579895 9.8836975 6.411812 10.917419 12.404945l0 0c4.6191406 1.3192902 8.466797 4.6731186 10.548828 9.194946c2.0820618 4.5218353 2.1942444 9.768097 0.3076172 14.383316l0 0c4.548523 6.198761 5.6125183 14.458511 2.7949524 21.696884c-2.8175354 7.2383575 -9.093384 12.367859 -16.485443 13.474258c-0.052093506 6.7934723 -3.61026 13.027069 -9.3029785 16.298111c-5.692749 3.2710419 -12.6311035 3.0687256 -18.140778 -0.5289612l0 0c-2.3468323 8.136353 -8.952362 14.123001 -16.962769 15.373505c-8.0104065 1.2504883 -15.989655 -2.4593506 -20.490417 -9.526733l0 0c-5.5169983 3.4835358 -12.136963 4.48703 -18.366516 2.7841187c-6.229553 -1.7029114 -11.543976 -5.9687805 -14.744446 -11.835327l0 0c-5.6376953 0.6907959 -11.0885315 -2.3676758 -13.647339 -7.6575165c-2.5588074 -5.289856 -1.6808167 -11.684982 2.1981812 -16.01152l0 0c-5.028961 -3.0993195 -7.5950317 -9.249405 -6.3601074 -15.24324c1.2348938 -5.99382 5.990967 -10.473145 11.788086 -11.102203z" fill-rule="evenodd"/><path stroke="#ffffff" stroke-width="1.0" stroke-linejoin="round" stroke-linecap="butt" d="m299.5633 167.22723l0 0c2.373169 1.4625854 5.114746 2.1260376 7.8566284 1.9013062m3.591278 21.768265c1.1791077 -0.14448547 2.3348694 -0.4504242 3.437439 -0.90997314m29.671875 9.9608c-0.8293152 -1.3022308 -1.5236511 -2.6937714 -2.0711975 -4.1509247m39.525818 -1.6960907l0 0c0.42785645 -1.4833832 0.7050781 -3.0101013 0.82702637 -4.5546875m26.615692 -11.213898c0.055480957 -7.2326813 -3.8677368 -13.855026 -10.084503 -17.022491m23.774872 -18.147873c-1.0068054 2.46286 -2.5437622 4.647644 -4.4904175 6.383026m-6.3651123 -29.961945l0 0c0.17156982 0.99456024 0.25094604 2.004074 0.23709106 3.014534m-26.553955 -10.397858l0 0c-0.9404602 1.158783 -1.7153015 2.4537048 -2.300354 3.844452m-20.579956 -1.5757828l0 0c-0.5011902 1.0525131 -0.87545776 2.1662521 -1.1141357 3.3155594m-25.09726 0.90689087l0 0c1.4633484 0.89740753 2.8171387 1.9775391 4.0316467 3.2166595m-35.373077 18.654198l0 0c0.14889526 1.145752 0.38415527 2.2773743 0.70358276 3.3842926" fill-rule="evenodd"/><path fill="#ffffff" d="m332.51392 149.53108q0 -0.578125 -0.4375 -0.90625q-0.4375 -0.328125 -1.546875 -0.5625q-1.09375 -0.234375 -1.734375 -0.5625q-0.640625 -0.328125 -0.953125 -0.78125q-0.3125 -0.453125 -0.3125 -1.078125q0 -1.03125 0.875 -1.75q0.890625 -0.71875 2.25 -0.71875q1.4375 0 2.328125 0.75q0.90625 0.734375 0.90625 1.890625l-1.453125 0q0 -0.59375 -0.515625 -1.015625q-0.5 -0.4375 -1.265625 -0.4375q-0.78125 0 -1.234375 0.34375q-0.4375 0.34375 -0.4375 0.890625q0 0.53125 0.40625 0.796875q0.421875 0.265625 1.5 0.515625q1.078125 0.234375 1.75 0.578125q0.671875 0.328125 1.0 0.796875q0.328125 0.46875 0.328125 1.15625q0 1.125 -0.90625 1.8125q-0.90625 0.6875 -2.359375 0.6875q-1.015625 0 -1.796875 -0.359375q-0.78125 -0.359375 -1.21875 -1.0q-0.4375 -0.65625 -0.4375 -1.40625l1.4375 0q0.046875 0.734375 0.578125 1.15625q0.546875 0.421875 1.4375 0.421875q0.828125 0 1.3125 -0.328125q0.5 -0.328125 0.5 -0.890625zm6.84375 2.40625q-1.71875 0 -2.796875 -1.125q-1.078125 -1.140625 -1.078125 -3.03125l0 -0.265625q0 -1.25 0.46875 -2.234375q0.484375 -1.0 1.34375 -1.546875q0.875 -0.5625 1.875 -0.5625q1.65625 0 2.5625 1.09375q0.921875 1.078125 0.921875 3.09375l0 0.609375l-5.734375 0q0.03125 1.25 0.734375 2.015625q0.703125 0.765625 1.78125 0.765625q0.765625 0 1.296875 -0.3125q0.53125 -0.3125 0.921875 -0.828125l0.890625 0.6875q-1.0625 1.640625 -3.1875 1.640625zm-0.1875 -7.578125q-0.875 0 -1.46875 0.640625q-0.59375 0.625 -0.734375 1.78125l4.234375 0l0 -0.109375q-0.0625 -1.109375 -0.59375 -1.703125q-0.53125 -0.609375 -1.4375 -0.609375zm9.2421875 0.265625q-0.328125 -0.0625 -0.71875 -0.0625q-1.421875 0 -1.921875 1.21875l0 6.0l-1.453125 0l0 -8.453125l1.40625 0l0.03125 0.96875q0.703125 -1.125 2.015625 -1.125q0.421875 0 0.640625 0.109375l0 1.34375zm4.2578125 5.1875l2.09375 -6.484375l1.46875 0l-3.03125 8.453125l-1.09375 0l-3.0625 -8.453125l1.46875 0l2.15625 6.484375zm6.53125 1.96875l-1.453125 0l0 -8.453125l1.453125 0l0 8.453125zm-1.5625 -10.703125q0 -0.34375 0.203125 -0.578125q0.21875 -0.25 0.640625 -0.25q0.421875 0 0.640625 0.25q0.21875 0.234375 0.21875 0.59375q0 0.34375 -0.21875 0.578125q-0.21875 0.234375 -0.640625 0.234375q-0.421875 0 -0.640625 -0.234375q-0.203125 -0.234375 -0.203125 -0.59375zm3.5234375 6.40625q0 -1.953125 0.921875 -3.125q0.921875 -1.1875 2.40625 -1.1875q1.484375 0 2.359375 1.015625l0 -4.40625l1.4375 0l0 12.0l-1.328125 0l-0.0625 -0.90625q-0.875 1.0625 -2.421875 1.0625q-1.46875 0 -2.390625 -1.203125q-0.921875 -1.203125 -0.921875 -3.140625l0 -0.109375zm1.4375 0.15625q0 1.4375 0.59375 2.25q0.59375 0.8125 1.640625 0.8125q1.375 0 2.015625 -1.234375l0 -3.875q-0.65625 -1.203125 -2.0 -1.203125q-1.0625 0 -1.65625 0.828125q-0.59375 0.8125 -0.59375 2.421875zm7.5546875 -0.171875q0 -1.234375 0.484375 -2.21875q0.484375 -1.0 1.359375 -1.53125q0.875 -0.546875 1.984375 -0.546875q1.734375 0 2.796875 1.203125q1.0625 1.1875 1.0625 3.171875l0 0.09375q0 1.234375 -0.46875 2.21875q-0.46875 0.984375 -1.359375 1.53125q-0.875 0.546875 -2.015625 0.546875q-1.71875 0 -2.78125 -1.1875q-1.0625 -1.203125 -1.0625 -3.171875l0 -0.109375zm1.453125 0.171875q0 1.40625 0.640625 2.265625q0.65625 0.84375 1.75 0.84375q1.109375 0 1.75 -0.859375q0.65625 -0.859375 0.65625 -2.421875q0 -1.390625 -0.671875 -2.25q-0.65625 -0.859375 -1.75 -0.859375q-1.0625 0 -1.71875 0.859375q-0.65625 0.84375 -0.65625 2.421875zm12.140625 -3.015625q-0.328125 -0.0625 -0.71875 -0.0625q-1.421875 0 -1.921875 1.21875l0 6.0l-1.453125 0l0 -8.453125l1.40625 0l0.03125 0.96875q0.703125 -1.125 2.015625 -1.125q0.421875 0 0.640625 0.109375l0 1.34375z" fill-rule="nonzero"/><path fill="#ffffff" d="m334.21313 166.4842q0 -1.984375 0.90625 -3.140625q0.921875 -1.171875 2.4375 -1.171875q1.546875 0 2.40625 1.09375l0.078125 -0.9375l1.3125 0l0 8.25q0 1.640625 -0.96875 2.578125q-0.96875 0.953125 -2.609375 0.953125q-0.921875 0 -1.796875 -0.390625q-0.875 -0.390625 -1.328125 -1.0625l0.75 -0.875q0.921875 1.15625 2.265625 1.15625q1.0625 0 1.640625 -0.59375q0.59375 -0.59375 0.59375 -1.6875l0 -0.71875q-0.859375 1.0 -2.359375 1.0q-1.484375 0 -2.40625 -1.1875q-0.921875 -1.203125 -0.921875 -3.265625zm1.453125 0.15625q0 1.4375 0.578125 2.25q0.59375 0.8125 1.65625 0.8125q1.359375 0 2.0 -1.234375l0 -3.859375q-0.65625 -1.21875 -1.984375 -1.21875q-1.0625 0 -1.65625 0.828125q-0.59375 0.8125 -0.59375 2.421875zm9.4453125 4.140625l-1.453125 0l0 -12.0l1.453125 0l0 12.0zm1.9296875 -4.3125q0 -1.234375 0.484375 -2.21875q0.484375 -1.0 1.359375 -1.53125q0.875 -0.546875 1.984375 -0.546875q1.734375 0 2.796875 1.203125q1.0625 1.1875 1.0625 3.171875l0 0.09375q0 1.234375 -0.46875 2.21875q-0.46875 0.984375 -1.359375 1.53125q-0.875 0.546875 -2.015625 0.546875q-1.71875 0 -2.78125 -1.1875q-1.0625 -1.203125 -1.0625 -3.171875l0 -0.109375zm1.453125 0.171875q0 1.40625 0.640625 2.265625q0.65625 0.84375 1.75 0.84375q1.109375 0 1.75 -0.859375q0.65625 -0.859375 0.65625 -2.421875q0 -1.390625 -0.671875 -2.25q-0.65625 -0.859375 -1.75 -0.859375q-1.0625 0 -1.71875 0.859375q-0.65625 0.84375 -0.65625 2.421875zm15.203125 0q0 1.9375 -0.890625 3.125q-0.890625 1.171875 -2.390625 1.171875q-1.59375 0 -2.46875 -1.140625l-0.078125 0.984375l-1.328125 0l0 -12.0l1.453125 0l0 4.46875q0.875 -1.078125 2.40625 -1.078125q1.546875 0 2.421875 1.171875q0.875 1.15625 0.875 3.171875l0 0.125zm-1.4375 -0.15625q0 -1.484375 -0.578125 -2.28125q-0.5625 -0.8125 -1.640625 -0.8125q-1.421875 0 -2.046875 1.328125l0 3.65625q0.65625 1.328125 2.0625 1.328125q1.046875 0 1.625 -0.796875q0.578125 -0.8125 0.578125 -2.421875zm8.4765625 4.296875q-0.125 -0.25 -0.203125 -0.890625q-1.0 1.046875 -2.40625 1.046875q-1.25 0 -2.046875 -0.703125q-0.796875 -0.71875 -0.796875 -1.796875q0 -1.328125 1.0 -2.046875q1.0 -0.734375 2.828125 -0.734375l1.40625 0l0 -0.671875q0 -0.75 -0.453125 -1.203125q-0.453125 -0.453125 -1.34375 -0.453125q-0.765625 0 -1.296875 0.390625q-0.515625 0.390625 -0.515625 0.953125l-1.453125 0q0 -0.640625 0.4375 -1.21875q0.453125 -0.59375 1.21875 -0.9375q0.78125 -0.34375 1.703125 -0.34375q1.453125 0 2.28125 0.734375q0.828125 0.71875 0.859375 2.0l0 3.890625q0 1.171875 0.296875 1.859375l0 0.125l-1.515625 0zm-2.390625 -1.109375q0.671875 0 1.28125 -0.34375q0.609375 -0.359375 0.890625 -0.921875l0 -1.734375l-1.140625 0q-2.65625 0 -2.65625 1.5625q0 0.671875 0.453125 1.0625q0.453125 0.375 1.171875 0.375zm7.453125 1.109375l-1.453125 0l0 -12.0l1.453125 0l0 12.0z" fill-rule="nonzero"/><path fill="#ffffff" fill-opacity="0.0" d="m90.178474 347.29135l0 0c0 -32.310852 26.193108 -58.503937 58.503944 -58.503937l0 0c15.516205 0 30.396912 6.163788 41.36853 17.135406c10.971619 10.971619 17.135406 25.852295 17.135406 41.36853l0 0c0 32.31082 -26.193115 58.503937 -58.503937 58.503937l0 0c-32.310837 0 -58.503944 -26.193115 -58.503944 -58.503937z" fill-rule="evenodd"/><path stroke="#ffffff" stroke-width="1.0" stroke-linejoin="round" stroke-linecap="butt" d="m90.178474 347.29135l0 0c0 -32.310852 26.193108 -58.503937 58.503944 -58.503937l0 0c15.516205 0 30.396912 6.163788 41.36853 17.135406c10.971619 10.971619 17.135406 25.852295 17.135406 41.36853l0 0c0 32.31082 -26.193115 58.503937 -58.503937 58.503937l0 0c-32.310837 0 -58.503944 -26.193115 -58.503944 -58.503937z" fill-rule="evenodd"/><path fill="#ffffff" d="m124.897255 353.3076q-1.71875 0 -2.796875 -1.125q-1.078125 -1.140625 -1.078125 -3.03125l0 -0.265625q0 -1.25 0.46875 -2.234375q0.484375 -1.0 1.34375 -1.546875q0.875 -0.5625 1.875 -0.5625q1.65625 0 2.5625 1.09375q0.9218826 1.078125 0.9218826 3.09375l0 0.609375l-5.7343826 0q0.03125 1.25 0.734375 2.015625q0.703125 0.765625 1.78125 0.765625q0.765625 0 1.296875 -0.3125q0.53125 -0.3125 0.921875 -0.828125l0.8906326 0.6875q-1.0625076 1.640625 -3.1875076 1.640625zm-0.1875 -7.578125q-0.875 0 -1.46875 0.640625q-0.59375 0.625 -0.734375 1.78125l4.234375 0l0 -0.109375q-0.0625 -1.109375 -0.59375 -1.703125q-0.53125 -0.609375 -1.4375 -0.609375zm10.07032 5.171875q0 -0.578125 -0.4375 -0.90625q-0.4375 -0.328125 -1.546875 -0.5625q-1.09375 -0.234375 -1.734375 -0.5625q-0.640625 -0.328125 -0.953125 -0.78125q-0.3125 -0.453125 -0.3125 -1.078125q0 -1.03125 0.875 -1.75q0.890625 -0.71875 2.25 -0.71875q1.4375 0 2.328125 0.75q0.90625 0.734375 0.90625 1.890625l-1.453125 0q0 -0.59375 -0.515625 -1.015625q-0.5 -0.4375 -1.265625 -0.4375q-0.78125 0 -1.234375 0.34375q-0.4375 0.34375 -0.4375 0.890625q0 0.53125 0.40625 0.796875q0.421875 0.265625 1.5 0.515625q1.078125 0.234375 1.75 0.578125q0.671875 0.328125 1.0 0.796875q0.328125 0.46875 0.328125 1.15625q0 1.125 -0.90625 1.8125q-0.90625 0.6875 -2.359375 0.6875q-1.015625 0 -1.796875 -0.359375q-0.78125 -0.359375 -1.21875 -1.0q-0.4375 -0.65625 -0.4375 -1.40625l1.4375 0q0.046875 0.734375 0.578125 1.15625q0.546875 0.421875 1.4375 0.421875q0.828125 0 1.3125 -0.328125q0.5 -0.328125 0.5 -0.890625zm5.296875 -8.25l0 2.046875l1.578125 0l0 1.109375l-1.578125 0l0 5.25q0 0.5 0.203125 0.765625q0.21875 0.25 0.71875 0.25q0.25 0 0.6875 -0.09375l0 1.171875q-0.5625 0.15625 -1.109375 0.15625q-0.96875 0 -1.46875 -0.578125q-0.484375 -0.59375 -0.484375 -1.671875l0 -5.25l-1.53125 0l0 -1.109375l1.53125 0l0 -2.046875l1.453125 0zm8.4765625 10.5q-0.125 -0.25 -0.203125 -0.890625q-1.0 1.046875 -2.40625 1.046875q-1.25 0 -2.046875 -0.703125q-0.796875 -0.71875 -0.796875 -1.796875q0 -1.328125 1.0 -2.046875q1.0 -0.734375 2.828125 -0.734375l1.40625 0l0 -0.671875q0 -0.75 -0.453125 -1.203125q-0.453125 -0.453125 -1.34375 -0.453125q-0.765625 0 -1.296875 0.390625q-0.515625 0.390625 -0.515625 0.953125l-1.453125 0q0 -0.640625 0.4375 -1.21875q0.453125 -0.59375 1.21875 -0.9375q0.78125 -0.34375 1.703125 -0.34375q1.453125 0 2.28125 0.734375q0.828125 0.71875 0.859375 2.0l0 3.890625q0 1.171875 0.296875 1.859375l0 0.125l-1.515625 0zm-2.390625 -1.109375q0.671875 0 1.28125 -0.34375q0.609375 -0.359375 0.890625 -0.921875l0 -1.734375l-1.140625 0q-2.65625 0 -2.65625 1.5625q0 0.671875 0.453125 1.0625q0.453125 0.375 1.171875 0.375zm13.03125 -3.03125q0 1.9375 -0.890625 3.125q-0.890625 1.171875 -2.390625 1.171875q-1.59375 0 -2.46875 -1.140625l-0.078125 0.984375l-1.328125 0l0 -12.0l1.453125 0l0 4.46875q0.875 -1.078125 2.40625 -1.078125q1.546875 0 2.421875 1.171875q0.875 1.15625 0.875 3.171875l0 0.125zm-1.4375 -0.15625q0 -1.484375 -0.578125 -2.28125q-0.5625 -0.8125 -1.640625 -0.8125q-1.421875 0 -2.046875 1.328125l0 3.65625q0.65625 1.328125 2.0625 1.328125q1.046875 0 1.625 -0.796875q0.578125 -0.8125 0.578125 -2.421875zm3.2890625 3.53125q0 -0.375 0.21875 -0.625q0.234375 -0.25 0.671875 -0.25q0.453125 0 0.671875 0.25q0.234375 0.25 0.234375 0.625q0 0.359375 -0.234375 0.609375q-0.21875 0.25 -0.671875 0.25q-0.4375 0 -0.671875 -0.25q-0.21875 -0.25 -0.21875 -0.609375zm12.75 0.765625l-1.453125 0l0 -9.640625l-2.921875 1.078125l0 -1.3125l4.140625 -1.5625l0.234375 0l0 11.4375z" fill-rule="nonzero"/><path fill="#ffffff" fill-opacity="0.0" d="m301.49738 347.29135l0 0c0 -32.310852 26.193115 -58.503937 58.503937 -58.503937l0 0c15.516205 0 30.396912 6.163788 41.36853 17.135406c10.971619 10.971619 17.135406 25.852295 17.135406 41.36853l0 0c0 32.31082 -26.193115 58.503937 -58.503937 58.503937l0 0c-32.31082 0 -58.503937 -26.193115 -58.503937 -58.503937z" fill-rule="evenodd"/><path stroke="#ffffff" stroke-width="1.0" stroke-linejoin="round" stroke-linecap="butt" d="m301.49738 347.29135l0 0c0 -32.310852 26.193115 -58.503937 58.503937 -58.503937l0 0c15.516205 0 30.396912 6.163788 41.36853 17.135406c10.971619 10.971619 17.135406 25.852295 17.135406 41.36853l0 0c0 32.31082 -26.193115 58.503937 -58.503937 58.503937l0 0c-32.31082 0 -58.503937 -26.193115 -58.503937 -58.503937z" fill-rule="evenodd"/><path fill="#ffffff" d="m336.21616 353.3076q-1.71875 0 -2.796875 -1.125q-1.078125 -1.140625 -1.078125 -3.03125l0 -0.265625q0 -1.25 0.46875 -2.234375q0.484375 -1.0 1.34375 -1.546875q0.875 -0.5625 1.875 -0.5625q1.65625 0 2.5625 1.09375q0.921875 1.078125 0.921875 3.09375l0 0.609375l-5.734375 0q0.03125 1.25 0.734375 2.015625q0.703125 0.765625 1.78125 0.765625q0.765625 0 1.296875 -0.3125q0.53125 -0.3125 0.921875 -0.828125l0.890625 0.6875q-1.0625 1.640625 -3.1875 1.640625zm-0.1875 -7.578125q-0.875 0 -1.46875 0.640625q-0.59375 0.625 -0.734375 1.78125l4.234375 0l0 -0.109375q-0.0625 -1.109375 -0.59375 -1.703125q-0.53125 -0.609375 -1.4375 -0.609375zm10.0703125 5.171875q0 -0.578125 -0.4375 -0.90625q-0.4375 -0.328125 -1.546875 -0.5625q-1.09375 -0.234375 -1.734375 -0.5625q-0.640625 -0.328125 -0.953125 -0.78125q-0.3125 -0.453125 -0.3125 -1.078125q0 -1.03125 0.875 -1.75q0.890625 -0.71875 2.25 -0.71875q1.4375 0 2.328125 0.75q0.90625 0.734375 0.90625 1.890625l-1.453125 0q0 -0.59375 -0.515625 -1.015625q-0.5 -0.4375 -1.265625 -0.4375q-0.78125 0 -1.234375 0.34375q-0.4375 0.34375 -0.4375 0.890625q0 0.53125 0.40625 0.796875q0.421875 0.265625 1.5 0.515625q1.078125 0.234375 1.75 0.578125q0.671875 0.328125 1.0 0.796875q0.328125 0.46875 0.328125 1.15625q0 1.125 -0.90625 1.8125q-0.90625 0.6875 -2.359375 0.6875q-1.015625 0 -1.796875 -0.359375q-0.78125 -0.359375 -1.21875 -1.0q-0.4375 -0.65625 -0.4375 -1.40625l1.4375 0q0.046875 0.734375 0.578125 1.15625q0.546875 0.421875 1.4375 0.421875q0.828125 0 1.3125 -0.328125q0.5 -0.328125 0.5 -0.890625zm5.296875 -8.25l0 2.046875l1.578125 0l0 1.109375l-1.578125 0l0 5.25q0 0.5 0.203125 0.765625q0.21875 0.25 0.71875 0.25q0.25 0 0.6875 -0.09375l0 1.171875q-0.5625 0.15625 -1.109375 0.15625q-0.96875 0 -1.46875 -0.578125q-0.484375 -0.59375 -0.484375 -1.671875l0 -5.25l-1.53125 0l0 -1.109375l1.53125 0l0 -2.046875l1.453125 0zm8.4765625 10.5q-0.125 -0.25 -0.203125 -0.890625q-1.0 1.046875 -2.40625 1.046875q-1.25 0 -2.046875 -0.703125q-0.796875 -0.71875 -0.796875 -1.796875q0 -1.328125 1.0 -2.046875q1.0 -0.734375 2.828125 -0.734375l1.40625 0l0 -0.671875q0 -0.75 -0.453125 -1.203125q-0.453125 -0.453125 -1.34375 -0.453125q-0.765625 0 -1.296875 0.390625q-0.515625 0.390625 -0.515625 0.953125l-1.453125 0q0 -0.640625 0.4375 -1.21875q0.453125 -0.59375 1.21875 -0.9375q0.78125 -0.34375 1.703125 -0.34375q1.453125 0 2.28125 0.734375q0.828125 0.71875 0.859375 2.0l0 3.890625q0 1.171875 0.296875 1.859375l0 0.125l-1.515625 0zm-2.390625 -1.109375q0.671875 0 1.28125 -0.34375q0.609375 -0.359375 0.890625 -0.921875l0 -1.734375l-1.140625 0q-2.65625 0 -2.65625 1.5625q0 0.671875 0.453125 1.0625q0.453125 0.375 1.171875 0.375zm13.03125 -3.03125q0 1.9375 -0.890625 3.125q-0.890625 1.171875 -2.390625 1.171875q-1.59375 0 -2.46875 -1.140625l-0.078125 0.984375l-1.328125 0l0 -12.0l1.453125 0l0 4.46875q0.875 -1.078125 2.40625 -1.078125q1.546875 0 2.421875 1.171875q0.875 1.15625 0.875 3.171875l0 0.125zm-1.4375 -0.15625q0 -1.484375 -0.578125 -2.28125q-0.5625 -0.8125 -1.640625 -0.8125q-1.421875 0 -2.046875 1.328125l0 3.65625q0.65625 1.328125 2.0625 1.328125q1.046875 0 1.625 -0.796875q0.578125 -0.8125 0.578125 -2.421875zm3.2890625 3.53125q0 -0.375 0.21875 -0.625q0.234375 -0.25 0.671875 -0.25q0.453125 0 0.671875 0.25q0.234375 0.25 0.234375 0.625q0 0.359375 -0.234375 0.609375q-0.21875 0.25 -0.671875 0.25q-0.4375 0 -0.671875 -0.25q-0.21875 -0.25 -0.21875 -0.609375zm15.453125 0.765625l-7.453125 0l0 -1.046875l3.9375 -4.375q0.875 -0.984375 1.203125 -1.609375q0.328125 -0.625 0.328125 -1.28125q0 -0.890625 -0.546875 -1.453125q-0.53125 -0.578125 -1.421875 -0.578125q-1.078125 0 -1.6875 0.609375q-0.59375 0.609375 -0.59375 1.703125l-1.4375 0q0 -1.5625 1.0 -2.53125q1.015625 -0.96875 2.71875 -0.96875q1.578125 0 2.5 0.828125q0.921875 0.828125 0.921875 2.21875q0 1.671875 -2.140625 4.0l-3.046875 3.296875l5.71875 0l0 1.1875z" fill-rule="nonzero"/><path fill="#ffffff" fill-opacity="0.0" d="m512.81757 347.29135l0 0c0 -32.310852 26.193115 -58.503937 58.503967 -58.503937l0 0c15.516174 0 30.396912 6.163788 41.36853 17.135406c10.971619 10.971619 17.135376 25.852295 17.135376 41.36853l0 0c0 32.31082 -26.193115 58.503937 -58.503906 58.503937l0 0c-32.310852 0 -58.503967 -26.193115 -58.503967 -58.503937z" fill-rule="evenodd"/><path stroke="#ffffff" stroke-width="1.0" stroke-linejoin="round" stroke-linecap="butt" d="m512.81757 347.29135l0 0c0 -32.310852 26.193115 -58.503937 58.503967 -58.503937l0 0c15.516174 0 30.396912 6.163788 41.36853 17.135406c10.971619 10.971619 17.135376 25.852295 17.135376 41.36853l0 0c0 32.31082 -26.193115 58.503937 -58.503906 58.503937l0 0c-32.310852 0 -58.503967 -26.193115 -58.503967 -58.503937z" fill-rule="evenodd"/><path fill="#ffffff" d="m548.02856 353.3076q-1.71875 0 -2.796875 -1.125q-1.078125 -1.140625 -1.078125 -3.03125l0 -0.265625q0 -1.25 0.46875 -2.234375q0.484375 -1.0 1.34375 -1.546875q0.875 -0.5625 1.875 -0.5625q1.65625 0 2.5625 1.09375q0.921875 1.078125 0.921875 3.09375l0 0.609375l-5.734375 0q0.03125 1.25 0.734375 2.015625q0.703125 0.765625 1.78125 0.765625q0.765625 0 1.296875 -0.3125q0.53125 -0.3125 0.921875 -0.828125l0.890625 0.6875q-1.0625 1.640625 -3.1875 1.640625zm-0.1875 -7.578125q-0.875 0 -1.46875 0.640625q-0.59375 0.625 -0.734375 1.78125l4.234375 0l0 -0.109375q-0.0625 -1.109375 -0.59375 -1.703125q-0.53125 -0.609375 -1.4375 -0.609375zm10.0703125 5.171875q0 -0.578125 -0.4375 -0.90625q-0.4375 -0.328125 -1.546875 -0.5625q-1.09375 -0.234375 -1.734375 -0.5625q-0.640625 -0.328125 -0.953125 -0.78125q-0.3125 -0.453125 -0.3125 -1.078125q0 -1.03125 0.875 -1.75q0.890625 -0.71875 2.25 -0.71875q1.4375 0 2.328125 0.75q0.90625 0.734375 0.90625 1.890625l-1.453125 0q0 -0.59375 -0.515625 -1.015625q-0.5 -0.4375 -1.265625 -0.4375q-0.78125 0 -1.234375 0.34375q-0.4375 0.34375 -0.4375 0.890625q0 0.53125 0.40625 0.796875q0.421875 0.265625 1.5 0.515625q1.078125 0.234375 1.75 0.578125q0.671875 0.328125 1.0 0.796875q0.328125 0.46875 0.328125 1.15625q0 1.125 -0.90625 1.8125q-0.90625 0.6875 -2.359375 0.6875q-1.015625 0 -1.796875 -0.359375q-0.78125 -0.359375 -1.21875 -1.0q-0.4375 -0.65625 -0.4375 -1.40625l1.4375 0q0.046875 0.734375 0.578125 1.15625q0.546875 0.421875 1.4375 0.421875q0.828125 0 1.3125 -0.328125q0.5 -0.328125 0.5 -0.890625zm5.296875 -8.25l0 2.046875l1.578125 0l0 1.109375l-1.578125 0l0 5.25q0 0.5 0.203125 0.765625q0.21875 0.25 0.71875 0.25q0.25 0 0.6875 -0.09375l0 1.171875q-0.5625 0.15625 -1.109375 0.15625q-0.96875 0 -1.46875 -0.578125q-0.484375 -0.59375 -0.484375 -1.671875l0 -5.25l-1.53125 0l0 -1.109375l1.53125 0l0 -2.046875l1.453125 0zm8.4765625 10.5q-0.125 -0.25 -0.203125 -0.890625q-1.0 1.046875 -2.40625 1.046875q-1.25 0 -2.046875 -0.703125q-0.796875 -0.71875 -0.796875 -1.796875q0 -1.328125 1.0 -2.046875q1.0 -0.734375 2.828125 -0.734375l1.40625 0l0 -0.671875q0 -0.75 -0.453125 -1.203125q-0.453125 -0.453125 -1.34375 -0.453125q-0.765625 0 -1.296875 0.390625q-0.515625 0.390625 -0.515625 0.953125l-1.453125 0q0 -0.640625 0.4375 -1.21875q0.453125 -0.59375 1.21875 -0.9375q0.78125 -0.34375 1.703125 -0.34375q1.453125 0 2.28125 0.734375q0.828125 0.71875 0.859375 2.0l0 3.890625q0 1.171875 0.296875 1.859375l0 0.125l-1.515625 0zm-2.390625 -1.109375q0.671875 0 1.28125 -0.34375q0.609375 -0.359375 0.890625 -0.921875l0 -1.734375l-1.140625 0q-2.65625 0 -2.65625 1.5625q0 0.671875 0.453125 1.0625q0.453125 0.375 1.171875 0.375zm13.03125 -3.03125q0 1.9375 -0.890625 3.125q-0.890625 1.171875 -2.390625 1.171875q-1.59375 0 -2.46875 -1.140625l-0.078125 0.984375l-1.328125 0l0 -12.0l1.453125 0l0 4.46875q0.875 -1.078125 2.40625 -1.078125q1.546875 0 2.421875 1.171875q0.875 1.15625 0.875 3.171875l0 0.125zm-1.4375 -0.15625q0 -1.484375 -0.578125 -2.28125q-0.5625 -0.8125 -1.640625 -0.8125q-1.421875 0 -2.046875 1.328125l0 3.65625q0.65625 1.328125 2.0625 1.328125q1.046875 0 1.625 -0.796875q0.578125 -0.8125 0.578125 -2.421875zm3.2890625 3.53125q0 -0.375 0.21875 -0.625q0.234375 -0.25 0.671875 -0.25q0.453125 0 0.671875 0.25q0.234375 0.25 0.234375 0.625q0 0.359375 -0.234375 0.609375q-0.21875 0.25 -0.671875 0.25q-0.4375 0 -0.671875 -0.25q-0.21875 -0.25 -0.21875 -0.609375z" fill-rule="nonzero"/><path fill="#ffffff" d="m594.7551 346.0732l-1.03125 3.5625q1.453125 -2.1875 2.234375 -2.875q0.78125 -0.6875 1.5 -0.6875q0.390625 0 0.640625 0.265625q0.25 0.25 0.25 0.671875q0 0.46875 -0.21875 1.25l-0.953125 3.28125q-0.171875 0.578125 -0.171875 0.703125q0 0.109375 0.0625 0.1875q0.0625 0.0625 0.140625 0.0625q0.09375 0 0.21875 -0.09375q0.421875 -0.328125 0.90625 -1.0l0.25 0.140625q-0.734375 1.046875 -1.375 1.484375q-0.453125 0.3125 -0.8125 0.3125q-0.296875 0 -0.46875 -0.1875q-0.171875 -0.171875 -0.171875 -0.46875q0 -0.375 0.265625 -1.28125l0.90625 -3.140625q0.171875 -0.59375 0.171875 -0.921875q0 -0.15625 -0.109375 -0.25q-0.09375 -0.09375 -0.234375 -0.09375q-0.21875 0 -0.53125 0.1875q-0.578125 0.34375 -1.203125 1.15625q-0.625 0.8125 -1.3125 2.0625q-0.375 0.671875 -0.609375 1.453125l-0.390625 1.296875l-1.171875 0l1.421875 -4.890625q0.25 -0.890625 0.25 -1.0625q0 -0.171875 -0.140625 -0.296875q-0.140625 -0.140625 -0.34375 -0.140625q-0.09375 0 -0.328125 0.03125l-0.296875 0.046875l-0.046875 -0.28125l2.703125 -0.484375z" fill-rule="nonzero"/><path fill="#ffffff" fill-opacity="0.0" d="m294.9056 207.96527l-88.3636 78.0614l2.7322693 3.0944824l-11.65213 -0.72280884l0.7230072 -11.655151l2.7322845 3.0944824l88.3636 -78.061386z" fill-rule="evenodd"/><path stroke="#ffffff" stroke-width="1.0" stroke-linejoin="round" stroke-linecap="butt" d="m294.9056 207.96527l-88.3636 78.0614l2.7322693 3.0944824l-11.65213 -0.72280884l0.7230072 -11.655151l2.7322845 3.0944824l88.3636 -78.061386z" fill-rule="evenodd"/><path fill="#ffffff" fill-opacity="0.0" d="m210.98174 289.34323l88.3636 -78.06142l-2.7322693 -3.0944824l11.65213 0.72280884l-0.72299194 11.655151l-2.7322998 -3.0944977l-88.3636 78.0614z" fill-rule="evenodd"/><path stroke="#ffffff" stroke-width="1.0" stroke-linejoin="round" stroke-linecap="butt" d="m210.98174 289.34323l88.3636 -78.06142l-2.7322693 -3.0944824l11.65213 0.72280884l-0.72299194 11.655151l-2.7322998 -3.0944977l-88.3636 78.0614z" fill-rule="evenodd"/><path fill="#ffffff" fill-opacity="0.0" d="m437.3308 205.94688l88.36359 78.06142l-2.7322388 3.0944824l11.6521 -0.72280884l-0.7229614 -11.655151l-2.7322998 3.0944824l-88.36362 -78.061386z" fill-rule="evenodd"/><path stroke="#ffffff" stroke-width="1.0" stroke-linejoin="round" stroke-linecap="butt" d="m437.3308 205.94688l88.36359 78.06142l-2.7322388 3.0944824l11.6521 -0.72280884l-0.7229614 -11.655151l-2.7322998 3.0944824l-88.36362 -78.061386z" fill-rule="evenodd"/><path fill="#ffffff" fill-opacity="0.0" d="m521.2547 287.32483l-88.36362 -78.061386l2.7322693 -3.0944824l-11.65213 0.72280884l0.72302246 11.655151l2.7322693 -3.0944977l88.36359 78.0614z" fill-rule="evenodd"/><path stroke="#ffffff" stroke-width="1.0" stroke-linejoin="round" stroke-linecap="butt" d="m521.2547 287.32483l-88.36362 -78.061386l2.7322693 -3.0944824l-11.65213 0.72280884l0.72302246 11.655151l2.7322693 -3.0944977l88.36359 78.0614z" fill-rule="evenodd"/><path fill="#ffffff" fill-opacity="0.0" d="m360.2088 219.086l1.0914917 53.481964l-4.126007 0.01574707l8.420349 8.218811l8.083588 -8.281799l-4.1259766 0.01574707l-1.0914612 -53.48198z" fill-rule="evenodd"/><path stroke="#ffffff" stroke-width="1.0" stroke-linejoin="round" stroke-linecap="butt" d="m360.2088 219.086l1.0914917 53.481964l-4.126007 0.01574707l8.420349 8.218811l8.083588 -8.281799l-4.1259766 0.01574707l-1.0914612 -53.48198z" fill-rule="evenodd"/><path fill="#ffffff" fill-opacity="0.0" d="m355.93555 276.25446l-1.0914612 -53.48198l4.1259766 -0.01574707l-8.420349 -8.218811l-8.083588 8.281799l4.1259766 -0.01574707l1.0914612 53.48198z" fill-rule="evenodd"/><path stroke="#ffffff" stroke-width="1.0" stroke-linejoin="round" stroke-linecap="butt" d="m355.93555 276.25446l-1.0914612 -53.48198l4.1259766 -0.01574707l-8.420349 -8.218811l-8.083588 8.281799l4.1259766 -0.01574707l1.0914612 53.48198z" fill-rule="evenodd"/><path fill="#ffffff" d="m440.2874 347.29135l0 0c0 -3.2963257 2.6721802 -5.968506 5.968506 -5.968506l0 0c1.5829163 0 3.1010437 0.6288147 4.2203674 1.7481384c1.1192932 1.1192932 1.7481079 2.6374207 1.7481079 4.2203674l0 0c0 3.2962952 -2.6721802 5.968506 -5.9684753 5.968506l0 0c-3.2963257 0 -5.968506 -2.6722107 -5.968506 -5.968506z" fill-rule="evenodd"/><path stroke="#ffffff" stroke-width="1.0" stroke-linejoin="round" stroke-linecap="butt" d="m440.2874 347.29135l0 0c0 -3.2963257 2.6721802 -5.968506 5.968506 -5.968506l0 0c1.5829163 0 3.1010437 0.6288147 4.2203674 1.7481384c1.1192932 1.1192932 1.7481079 2.6374207 1.7481079 4.2203674l0 0c0 3.2962952 -2.6721802 5.968506 -5.9684753 5.968506l0 0c-3.2963257 0 -5.968506 -2.6722107 -5.968506 -5.968506z" fill-rule="evenodd"/><path fill="#ffffff" d="m460.28763 347.29135l0 0c0 -3.2963257 2.6722107 -5.968506 5.968506 -5.968506l0 0c1.5829468 0 3.1010742 0.6288147 4.2203674 1.7481384c1.1193237 1.1192932 1.7481384 2.6374207 1.7481384 4.2203674l0 0c0 3.2962952 -2.6721802 5.968506 -5.968506 5.968506l0 0c-3.2962952 0 -5.968506 -2.6722107 -5.968506 -5.968506z" fill-rule="evenodd"/><path stroke="#ffffff" stroke-width="1.0" stroke-linejoin="round" stroke-linecap="butt" d="m460.28763 347.29135l0 0c0 -3.2963257 2.6722107 -5.968506 5.968506 -5.968506l0 0c1.5829468 0 3.1010742 0.6288147 4.2203674 1.7481384c1.1193237 1.1192932 1.7481384 2.6374207 1.7481384 4.2203674l0 0c0 3.2962952 -2.6721802 5.968506 -5.968506 5.968506l0 0c-3.2962952 0 -5.968506 -2.6722107 -5.968506 -5.968506z" fill-rule="evenodd"/><path fill="#ffffff" d="m479.1003 347.29135l0 0c0 -3.2963257 2.6721802 -5.968506 5.968506 -5.968506l0 0c1.5829468 0 3.1010437 0.6288147 4.2203674 1.7481384c1.1193237 1.1192932 1.7481384 2.6374207 1.7481384 4.2203674l0 0c0 3.2962952 -2.6722107 5.968506 -5.968506 5.968506l0 0c-3.2963257 0 -5.968506 -2.6722107 -5.968506 -5.968506z" fill-rule="evenodd"/><path stroke="#ffffff" stroke-width="1.0" stroke-linejoin="round" stroke-linecap="butt" d="m479.1003 347.29135l0 0c0 -3.2963257 2.6721802 -5.968506 5.968506 -5.968506l0 0c1.5829468 0 3.1010437 0.6288147 4.2203674 1.7481384c1.1193237 1.1192932 1.7481384 2.6374207 1.7481384 4.2203674l0 0c0 3.2962952 -2.6722107 5.968506 -5.968506 5.968506l0 0c-3.2963257 0 -5.968506 -2.6722107 -5.968506 -5.968506z" fill-rule="evenodd"/></g></svg>