<svg version="1.1" viewBox="0.0 0.0 720.0 540.0" fill="none" stroke="none" stroke-linecap="square" stroke-miterlimit="10" xmlns:xlink="http://www.w3.org/1999/xlink" xmlns="http://www.w3.org/2000/svg"><clipPath id="p.0"><path d="m0 0l720.0 0l0 540.0l-720.0 0l0 -540.0z" clip-rule="nonzero"/></clipPath><g clip-path="url(#p.0)"><path fill="#000000" fill-opacity="0.0" d="m0 0l720.0 0l0 540.0l-720.0 0z" fill-rule="evenodd"/><path fill="#000000" fill-opacity="0.0" d="m2.6929133 23.619423l714.61414 0l0 444.47244l-714.61414 0z" fill-rule="evenodd"/><path fill="#000000" d="m313.8164 46.479424q-0.578125 0.828125 -1.609375 1.25q-1.03125 0.40625 -2.40625 0.40625q-1.390625 0 -2.46875 -0.65625q-1.078125 -0.65625 -1.671875 -1.859375q-0.59375 -1.203125 -0.609375 -2.78125l0 -1.0q0 -2.5625 1.203125 -3.96875q1.203125 -1.421875 3.375 -1.421875q1.78125 0 2.859375 0.90625q1.09375 0.90625 1.328125 2.578125l-1.5 0q-0.421875 -2.25 -2.6875 -2.25q-1.5 0 -2.28125 1.0625q-0.78125 1.046875 -0.78125 3.0625l0 0.921875q0 1.921875 0.875 3.046875q0.875 1.125 2.359375 1.125q0.84375 0 1.46875 -0.1875q0.640625 -0.1875 1.0625 -0.625l0 -2.5625l-2.640625 0l0 -1.21875l4.125 0l0 4.171875zm6.3671875 -5.65625q-0.328125 -0.0625 -0.71875 -0.0625q-1.421875 0 -1.921875 1.21875l0 6.0l-1.453125 0l0 -8.453125l1.40625 0l0.03125 0.96875q0.703125 -1.125 2.015625 -1.125q0.421875 0 0.640625 0.109375l0 1.34375zm6.2265625 7.15625q-0.125 -0.25 -0.203125 -0.890625q-1.0 1.046875 -2.40625 1.046875q-1.25 0 -2.046875 -0.703125q-0.796875 -0.71875 -0.796875 -1.796875q0 -1.328125 1.0 -2.046875q1.0 -0.734375 2.828125 -0.734375l1.40625 0l0 -0.671875q0 -0.75 -0.453125 -1.203125q-0.453125 -0.453125 -1.34375 -0.453125q-0.765625 0 -1.296875 0.390625q-0.515625 0.390625 -0.515625 0.953125l-1.453125 0q0 -0.640625 0.4375 -1.21875q0.453125 -0.59375 1.21875 -0.9375q0.78125 -0.34375 1.703125 -0.34375q1.453125 0 2.28125 0.734375q0.828125 0.71875 0.859375 2.0l0 3.890625q0 1.171875 0.296875 1.859375l0 0.125l-1.515625 0zm-2.390625 -1.109375q0.671875 0 1.28125 -0.34375q0.609375 -0.359375 0.890625 -0.921875l0 -1.734375l-1.140625 0q-2.65625 0 -2.65625 1.5625q0 0.671875 0.453125 1.0625q0.453125 0.375 1.171875 0.375zm7.25 -7.34375l0.046875 1.0625q0.96875 -1.21875 2.53125 -1.21875q2.671875 0 2.703125 3.015625l0 5.59375l-1.453125 0l0 -5.59375q0 -0.921875 -0.421875 -1.359375q-0.40625 -0.4375 -1.265625 -0.4375q-0.703125 0 -1.234375 0.375q-0.53125 0.375 -0.828125 0.984375l0 6.03125l-1.453125 0l0 -8.453125l1.375 0zm7.109375 4.15625q0 -1.953125 0.921875 -3.125q0.921875 -1.1875 2.40625 -1.1875q1.484375 0 2.359375 1.015625l0 -4.40625l1.4375 0l0 12.0l-1.328125 0l-0.0625 -0.90625q-0.875 1.0625 -2.421875 1.0625q-1.46875 0 -2.390625 -1.203125q-0.921875 -1.203125 -0.921875 -3.140625l0 -0.109375zm1.4375 0.15625q0 1.4375 0.59375 2.25q0.59375 0.8125 1.640625 0.8125q1.375 0 2.015625 -1.234375l0 -3.875q-0.65625 -1.203125 -2.0 -1.203125q-1.0625 0 -1.65625 0.828125q-0.59375 0.8125 -0.59375 2.421875zm11.4453125 4.296875q-1.71875 0 -2.796875 -1.125q-1.078125 -1.140625 -1.078125 -3.03125l0 -0.265625q0 -1.25 0.46875 -2.234375q0.484375 -1.0 1.34375 -1.546875q0.875 -0.5625 1.875 -0.5625q1.65625 0 2.5625 1.09375q0.921875 1.078125 0.921875 3.09375l0 0.609375l-5.734375 0q0.03125 1.25 0.734375 2.015625q0.703125 0.765625 1.78125 0.765625q0.765625 0 1.296875 -0.3125q0.53125 -0.3125 0.921875 -0.828125l0.890625 0.6875q-1.0625 1.640625 -3.1875 1.640625zm-0.1875 -7.578125q-0.875 0 -1.46875 0.640625q-0.59375 0.625 -0.734375 1.78125l4.234375 0l0 -0.109375q-0.0625 -1.109375 -0.59375 -1.703125q-0.53125 -0.609375 -1.4375 -0.609375zm14.03125 5.171875q0 -0.578125 -0.4375 -0.90625q-0.4375 -0.328125 -1.546875 -0.5625q-1.09375 -0.234375 -1.734375 -0.5625q-0.640625 -0.328125 -0.953125 -0.78125q-0.3125 -0.453125 -0.3125 -1.078125q0 -1.03125 0.875 -1.75q0.890625 -0.71875 2.25 -0.71875q1.4375 0 2.328125 0.75q0.90625 0.734375 0.90625 1.890625l-1.453125 0q0 -0.59375 -0.515625 -1.015625q-0.5 -0.4375 -1.265625 -0.4375q-0.78125 0 -1.234375 0.34375q-0.4375 0.34375 -0.4375 0.890625q0 0.53125 0.40625 0.796875q0.421875 0.265625 1.5 0.515625q1.078125 0.234375 1.75 0.578125q0.671875 0.328125 1.0 0.796875q0.328125 0.46875 0.328125 1.15625q0 1.125 -0.90625 1.8125q-0.90625 0.6875 -2.359375 0.6875q-1.015625 0 -1.796875 -0.359375q-0.78125 -0.359375 -1.21875 -1.0q-0.4375 -0.65625 -0.4375 -1.40625l1.4375 0q0.046875 0.734375 0.578125 1.15625q0.546875 0.421875 1.4375 0.421875q0.828125 0 1.3125 -0.328125q0.5 -0.328125 0.5 -0.890625zm4.90625 2.25l-1.453125 0l0 -8.453125l1.453125 0l0 8.453125zm-1.5625 -10.703125q0 -0.34375 0.203125 -0.578125q0.21875 -0.25 0.640625 -0.25q0.421875 0 0.640625 0.25q0.21875 0.234375 0.21875 0.59375q0 0.34375 -0.21875 0.578125q-0.21875 0.234375 -0.640625 0.234375q-0.421875 0 -0.640625 -0.234375q-0.203125 -0.234375 -0.203125 -0.59375zm8.7890625 8.453125q0 -0.578125 -0.4375 -0.90625q-0.4375 -0.328125 -1.546875 -0.5625q-1.09375 -0.234375 -1.734375 -0.5625q-0.640625 -0.328125 -0.953125 -0.78125q-0.3125 -0.453125 -0.3125 -1.078125q0 -1.03125 0.875 -1.75q0.890625 -0.71875 2.25 -0.71875q1.4375 0 2.328125 0.75q0.90625 0.734375 0.90625 1.890625l-1.453125 0q0 -0.59375 -0.515625 -1.015625q-0.5 -0.4375 -1.265625 -0.4375q-0.78125 0 -1.234375 0.34375q-0.4375 0.34375 -0.4375 0.890625q0 0.53125 0.40625 0.796875q0.421875 0.265625 1.5 0.515625q1.078125 0.234375 1.75 0.578125q0.671875 0.328125 1.0 0.796875q0.328125 0.46875 0.328125 1.15625q0 1.125 -0.90625 1.8125q-0.90625 0.6875 -2.359375 0.6875q-1.015625 0 -1.796875 -0.359375q-0.78125 -0.359375 -1.21875 -1.0q-0.4375 -0.65625 -0.4375 -1.40625l1.4375 0q0.046875 0.734375 0.578125 1.15625q0.546875 0.421875 1.4375 0.421875q0.828125 0 1.3125 -0.328125q0.5 -0.328125 0.5 -0.890625zm5.296875 -8.25l0 2.046875l1.578125 0l0 1.109375l-1.578125 0l0 5.25q0 0.5 0.203125 0.765625q0.21875 0.25 0.71875 0.25q0.25 0 0.6875 -0.09375l0 1.171875q-0.5625 0.15625 -1.109375 0.15625q-0.96875 0 -1.46875 -0.578125q-0.484375 -0.59375 -0.484375 -1.671875l0 -5.25l-1.53125 0l0 -1.109375l1.53125 0l0 -2.046875l1.453125 0zm6.7734375 10.65625q-1.71875 0 -2.796875 -1.125q-1.078125 -1.140625 -1.078125 -3.03125l0 -0.265625q0 -1.25 0.46875 -2.234375q0.484375 -1.0 1.34375 -1.546875q0.875 -0.5625 1.875 -0.5625q1.65625 0 2.5625 1.09375q0.921875 1.078125 0.921875 3.09375l0 0.609375l-5.734375 0q0.03125 1.25 0.734375 2.015625q0.703125 0.765625 1.78125 0.765625q0.765625 0 1.296875 -0.3125q0.53125 -0.3125 0.921875 -0.828125l0.890625 0.6875q-1.0625 1.640625 -3.1875 1.640625zm-0.1875 -7.578125q-0.875 0 -1.46875 0.640625q-0.59375 0.625 -0.734375 1.78125l4.234375 0l0 -0.109375q-0.0625 -1.109375 -0.59375 -1.703125q-0.53125 -0.609375 -1.4375 -0.609375zm6.5078125 -1.03125l0.046875 0.9375q0.921875 -1.09375 2.5 -1.09375q1.78125 0 2.421875 1.359375q0.421875 -0.609375 1.09375 -0.984375q0.671875 -0.375 1.59375 -0.375q2.78125 0 2.828125 2.9375l0 5.671875l-1.4375 0l0 -5.578125q0 -0.90625 -0.421875 -1.359375q-0.40625 -0.453125 -1.390625 -0.453125q-0.796875 0 -1.328125 0.484375q-0.53125 0.484375 -0.625 1.296875l0 5.609375l-1.453125 0l0 -5.546875q0 -1.84375 -1.796875 -1.84375q-1.421875 0 -1.953125 1.21875l0 6.171875l-1.4375 0l0 -8.453125l1.359375 0zm17.882812 8.453125q-0.125 -0.25 -0.203125 -0.890625q-1.0 1.046875 -2.40625 1.046875q-1.25 0 -2.046875 -0.703125q-0.796875 -0.71875 -0.796875 -1.796875q0 -1.328125 1.0 -2.046875q1.0 -0.734375 2.828125 -0.734375l1.40625 0l0 -0.671875q0 -0.75 -0.453125 -1.203125q-0.453125 -0.453125 -1.34375 -0.453125q-0.765625 0 -1.296875 0.390625q-0.515625 0.390625 -0.515625 0.953125l-1.453125 0q0 -0.640625 0.4375 -1.21875q0.453125 -0.59375 1.21875 -0.9375q0.78125 -0.34375 1.703125 -0.34375q1.453125 0 2.28125 0.734375q0.828125 0.71875 0.859375 2.0l0 3.890625q0 1.171875 0.296875 1.859375l0 0.125l-1.515625 0zm-2.390625 -1.109375q0.671875 0 1.28125 -0.34375q0.609375 -0.359375 0.890625 -0.921875l0 -1.734375l-1.140625 0q-2.65625 0 -2.65625 1.5625q0 0.671875 0.453125 1.0625q0.453125 0.375 1.171875 0.375z" fill-rule="nonzero"/><path fill="#000000" fill-opacity="0.0" d="m342.54922 243.60301l-17.448822 -17.448807l8.724396 0l0 -52.346466l17.448822 0l0 52.346466l8.724396 0z" fill-rule="evenodd"/><path stroke="#000000" stroke-width="1.0" stroke-linejoin="round" stroke-linecap="butt" d="m342.54922 243.60301l-17.448822 -17.448807l8.724396 0l0 -52.346466l17.448822 0l0 52.346466l8.724396 0z" fill-rule="evenodd"/><path fill="#000000" fill-opacity="0.0" d="m377.44684 173.80905l-17.448822 17.448822l8.724426 0l0 52.34645l17.448822 0l0 -52.34645l8.724396 0z" fill-rule="evenodd"/><path stroke="#000000" stroke-width="1.0" stroke-linejoin="round" stroke-linecap="butt" d="m377.44684 173.80905l-17.448822 17.448822l8.724426 0l0 52.34645l17.448822 0l0 -52.34645l8.724396 0z" fill-rule="evenodd"/><path fill="#000000" fill-opacity="0.0" d="m300.32614 92.58765l0 0c-1.1743164 -8.313049 2.6811523 -16.542458 9.930328 -21.19619c7.249176 -4.6537323 16.620758 -4.9156265 24.138 -0.6745453l0 0c2.6628418 -4.8335495 7.536621 -8.170784 13.147125 -9.002251c5.6104736 -0.8314667 11.298706 0.9404907 15.344086 4.7798843l0 0c2.268402 -4.3824043 6.7224426 -7.3268204 11.781586 -7.788418c5.0591736 -0.46159363 10.007446 1.624958 13.088928 5.519245l0 0c4.0982056 -4.64534 10.61853 -6.601223 16.739624 -5.021324c6.121063 1.5798988 10.7435 6.411812 11.867126 12.404945l0 0c5.020996 1.3192978 9.203339 4.6731186 11.466522 9.194954c2.2631836 4.5218353 2.3851318 9.768097 0.3343811 14.383316l0 0c4.9441833 6.1987457 6.100769 14.458504 3.038086 21.696869c-3.0626526 7.238373 -9.88443 12.3678665 -17.919556 13.474266c-0.056640625 6.7934723 -3.9243164 13.027069 -10.112305 16.298111c-6.187958 3.2710419 -13.729919 3.0687256 -19.718903 -0.5289612l0 0c-2.5509644 8.136353 -9.73114 14.123016 -18.438385 15.373505c-8.707275 1.2504883 -17.380676 -2.4593506 -22.27298 -9.526733l0 0c-5.9969177 3.4835358 -13.19278 4.4870453 -19.964264 2.784134c-6.7714844 -1.7029266 -12.548218 -5.968796 -16.02713 -11.835342l0 0c-6.128113 0.69081116 -12.053162 -2.3676758 -14.834564 -7.6575165c-2.781372 -5.289856 -1.8270264 -11.684982 2.3894348 -16.01152l0 0c-5.466461 -3.0993195 -8.255768 -9.249413 -6.9134216 -15.243233c1.3423462 -5.99382 6.512146 -10.47316 12.813599 -11.102203z" fill-rule="evenodd"/><path fill="#000000" fill-opacity="0.0" d="m294.30484 119.25349l0 0c2.5796204 1.4625778 5.5596924 2.1260376 8.5401 1.9012985m3.9036865 21.768265c1.2816772 -0.14447021 2.5379944 -0.4504242 3.7364807 -0.90997314m32.253113 9.9608c-0.9014282 -1.3022308 -1.656189 -2.6937714 -2.2513428 -4.1509247m42.964264 -1.6960907l0 0c0.4650879 -1.4833679 0.76641846 -3.010086 0.8989868 -4.5546722m28.931091 -11.213898c0.060302734 -7.232704 -4.2042236 -13.855034 -10.961792 -17.022514m25.84311 -18.147865c-1.0943604 2.4628677 -2.7650452 4.647644 -4.8810425 6.3830338m-6.9188232 -29.961952l0 0c0.1864624 0.99456024 0.2727661 2.004074 0.25769043 3.0145416m-28.863953 -10.397865l0 0c-1.0222778 1.158783 -1.8645325 2.4537048 -2.5004883 3.844452m-22.37027 -1.5757751l0 0c-0.5447693 1.0525055 -0.9515991 2.1662445 -1.2110596 3.3155594m-27.280548 0.90688324l0 0c1.5906372 0.89741516 3.0621948 1.9775391 4.3823547 3.2166595m-38.450256 18.654198l0 0c0.16183472 1.145752 0.41757202 2.277382 0.7647705 3.3842926" fill-rule="evenodd"/><path stroke="#000000" stroke-width="1.0" stroke-linejoin="round" stroke-linecap="butt" d="m300.32614 92.58765l0 0c-1.1743164 -8.313049 2.6811523 -16.542458 9.930328 -21.19619c7.249176 -4.6537323 16.620758 -4.9156265 24.138 -0.6745453l0 0c2.6628418 -4.8335495 7.536621 -8.170784 13.147125 -9.002251c5.6104736 -0.8314667 11.298706 0.9404907 15.344086 4.7798843l0 0c2.268402 -4.3824043 6.7224426 -7.3268204 11.781586 -7.788418c5.0591736 -0.46159363 10.007446 1.624958 13.088928 5.519245l0 0c4.0982056 -4.64534 10.61853 -6.601223 16.739624 -5.021324c6.121063 1.5798988 10.7435 6.411812 11.867126 12.404945l0 0c5.020996 1.3192978 9.203339 4.6731186 11.466522 9.194954c2.2631836 4.5218353 2.3851318 9.768097 0.3343811 14.383316l0 0c4.9441833 6.1987457 6.100769 14.458504 3.038086 21.696869c-3.0626526 7.238373 -9.88443 12.3678665 -17.919556 13.474266c-0.056640625 6.7934723 -3.9243164 13.027069 -10.112305 16.298111c-6.187958 3.2710419 -13.729919 3.0687256 -19.718903 -0.5289612l0 0c-2.5509644 8.136353 -9.73114 14.123016 -18.438385 15.373505c-8.707275 1.2504883 -17.380676 -2.4593506 -22.27298 -9.526733l0 0c-5.9969177 3.4835358 -13.19278 4.4870453 -19.964264 2.784134c-6.7714844 -1.7029266 -12.548218 -5.968796 -16.02713 -11.835342l0 0c-6.128113 0.69081116 -12.053162 -2.3676758 -14.834564 -7.6575165c-2.781372 -5.289856 -1.8270264 -11.684982 2.3894348 -16.01152l0 0c-5.466461 -3.0993195 -8.255768 -9.249413 -6.9134216 -15.243233c1.3423462 -5.99382 6.512146 -10.47316 12.813599 -11.102203z" fill-rule="evenodd"/><path stroke="#000000" stroke-width="1.0" stroke-linejoin="round" stroke-linecap="butt" d="m294.30484 119.25349l0 0c2.5796204 1.4625778 5.5596924 2.1260376 8.5401 1.9012985m3.9036865 21.768265c1.2816772 -0.14447021 2.5379944 -0.4504242 3.7364807 -0.90997314m32.253113 9.9608c-0.9014282 -1.3022308 -1.656189 -2.6937714 -2.2513428 -4.1509247m42.964264 -1.6960907l0 0c0.4650879 -1.4833679 0.76641846 -3.010086 0.8989868 -4.5546722m28.931091 -11.213898c0.060302734 -7.232704 -4.2042236 -13.855034 -10.961792 -17.022514m25.84311 -18.147865c-1.0943604 2.4628677 -2.7650452 4.647644 -4.8810425 6.3830338m-6.9188232 -29.961952l0 0c0.1864624 0.99456024 0.2727661 2.004074 0.25769043 3.0145416m-28.863953 -10.397865l0 0c-1.0222778 1.158783 -1.8645325 2.4537048 -2.5004883 3.844452m-22.37027 -1.5757751l0 0c-0.5447693 1.0525055 -0.9515991 2.1662445 -1.2110596 3.3155594m-27.280548 0.90688324l0 0c1.5906372 0.89741516 3.0621948 1.9775391 4.3823547 3.2166595m-38.450256 18.654198l0 0c0.16183472 1.145752 0.41757202 2.277382 0.7647705 3.3842926" fill-rule="evenodd"/><path fill="#000000" d="m332.09863 101.55733q0 -0.578125 -0.4375 -0.90625q-0.4375 -0.328125 -1.546875 -0.5625q-1.09375 -0.234375 -1.734375 -0.5625q-0.640625 -0.328125 -0.953125 -0.78125q-0.3125 -0.453125 -0.3125 -1.078125q0 -1.03125 0.875 -1.75q0.890625 -0.71875 2.25 -0.71875q1.4375 0 2.328125 0.75q0.90625 0.734375 0.90625 1.890625l-1.453125 0q0 -0.59375 -0.515625 -1.015625q-0.5 -0.4375 -1.265625 -0.4375q-0.78125 0 -1.234375 0.34375q-0.4375 0.34375 -0.4375 0.890625q0 0.53125 0.40625 0.796875q0.421875 0.265625 1.5 0.515625q1.078125 0.234375 1.75 0.578125q0.671875 0.328125 1.0 0.796875q0.328125 0.46875 0.328125 1.15625q0 1.125 -0.90625 1.8125q-0.90625 0.6875 -2.359375 0.6875q-1.015625 0 -1.796875 -0.359375q-0.78125 -0.359375 -1.21875 -1.0q-0.4375 -0.65625 -0.4375 -1.40625l1.4375 0q0.046875 0.734375 0.578125 1.15625q0.546875 0.421875 1.4375 0.421875q0.828125 0 1.3125 -0.328125q0.5 -0.328125 0.5 -0.890625zm6.84375 2.40625q-1.71875 0 -2.796875 -1.125q-1.078125 -1.140625 -1.078125 -3.03125l0 -0.265625q0 -1.25 0.46875 -2.234375q0.484375 -1.0 1.34375 -1.546875q0.875 -0.5625 1.875 -0.5625q1.65625 0 2.5625 1.09375q0.921875 1.078125 0.921875 3.09375l0 0.609375l-5.734375 0q0.03125 1.25 0.734375 2.015625q0.703125 0.765625 1.78125 0.765625q0.765625 0 1.296875 -0.3125q0.53125 -0.3125 0.921875 -0.828125l0.890625 0.6875q-1.0625 1.640625 -3.1875 1.640625zm-0.1875 -7.578125q-0.875 0 -1.46875 0.640625q-0.59375 0.625 -0.734375 1.78125l4.234375 0l0 -0.109375q-0.0625 -1.109375 -0.59375 -1.703125q-0.53125 -0.609375 -1.4375 -0.609375zm9.2421875 0.265625q-0.328125 -0.0625 -0.71875 -0.0625q-1.421875 0 -1.921875 1.21875l0 6.0l-1.453125 0l0 -8.453125l1.40625 0l0.03125 0.96875q0.703125 -1.125 2.015625 -1.125q0.421875 0 0.640625 0.109375l0 1.34375zm4.2578125 5.1875l2.09375 -6.484375l1.46875 0l-3.03125 8.453125l-1.09375 0l-3.0625 -8.453125l1.46875 0l2.15625 6.484375zm6.53125 1.96875l-1.453125 0l0 -8.453125l1.453125 0l0 8.453125zm-1.5625 -10.703125q0 -0.34375 0.203125 -0.578125q0.21875 -0.25 0.640625 -0.25q0.421875 0 0.640625 0.25q0.21875 0.234375 0.21875 0.59375q0 0.34375 -0.21875 0.578125q-0.21875 0.234375 -0.640625 0.234375q-0.421875 0 -0.640625 -0.234375q-0.203125 -0.234375 -0.203125 -0.59375zm3.5234375 6.40625q0 -1.953125 0.921875 -3.125q0.921875 -1.1875 2.40625 -1.1875q1.484375 0 2.359375 1.015625l0 -4.40625l1.4375 0l0 12.0l-1.328125 0l-0.0625 -0.90625q-0.875 1.0625 -2.421875 1.0625q-1.46875 0 -2.390625 -1.203125q-0.921875 -1.203125 -0.921875 -3.140625l0 -0.109375zm1.4375 0.15625q0 1.4375 0.59375 2.25q0.59375 0.8125 1.640625 0.8125q1.375 0 2.015625 -1.234375l0 -3.875q-0.65625 -1.203125 -2.0 -1.203125q-1.0625 0 -1.65625 0.828125q-0.59375 0.8125 -0.59375 2.421875zm7.5546875 -0.171875q0 -1.234375 0.484375 -2.21875q0.484375 -1.0 1.359375 -1.53125q0.875 -0.546875 1.984375 -0.546875q1.734375 0 2.796875 1.203125q1.0625 1.1875 1.0625 3.171875l0 0.09375q0 1.234375 -0.46875 2.21875q-0.46875 0.984375 -1.359375 1.53125q-0.875 0.546875 -2.015625 0.546875q-1.71875 0 -2.78125 -1.1875q-1.0625 -1.203125 -1.0625 -3.171875l0 -0.109375zm1.453125 0.171875q0 1.40625 0.640625 2.265625q0.65625 0.84375 1.75 0.84375q1.109375 0 1.75 -0.859375q0.65625 -0.859375 0.65625 -2.421875q0 -1.390625 -0.671875 -2.25q-0.65625 -0.859375 -1.75 -0.859375q-1.0625 0 -1.71875 0.859375q-0.65625 0.84375 -0.65625 2.421875zm12.140625 -3.015625q-0.328125 -0.0625 -0.71875 -0.0625q-1.421875 0 -1.921875 1.21875l0 6.0l-1.453125 0l0 -8.453125l1.40625 0l0.03125 0.96875q0.703125 -1.125 2.015625 -1.125q0.421875 0 0.640625 0.109375l0 1.34375z" fill-rule="nonzero"/><path fill="#000000" d="m333.79785 118.51045q0 -1.984375 0.90625 -3.140625q0.921875 -1.171875 2.4375 -1.171875q1.546875 0 2.40625 1.09375l0.078125 -0.9375l1.3125 0l0 8.25q0 1.640625 -0.96875 2.578125q-0.96875 0.953125 -2.609375 0.953125q-0.921875 0 -1.796875 -0.390625q-0.875 -0.390625 -1.328125 -1.0625l0.75 -0.875q0.921875 1.15625 2.265625 1.15625q1.0625 0 1.640625 -0.59375q0.59375 -0.59375 0.59375 -1.6875l0 -0.71875q-0.859375 1.0 -2.359375 1.0q-1.484375 0 -2.40625 -1.1875q-0.921875 -1.203125 -0.921875 -3.265625zm1.453125 0.15625q0 1.4375 0.578125 2.25q0.59375 0.8125 1.65625 0.8125q1.359375 0 2.0 -1.234375l0 -3.859375q-0.65625 -1.21875 -1.984375 -1.21875q-1.0625 0 -1.65625 0.828125q-0.59375 0.8125 -0.59375 2.421875zm9.4453125 4.140625l-1.453125 0l0 -12.0l1.453125 0l0 12.0zm1.9296875 -4.3125q0 -1.234375 0.484375 -2.21875q0.484375 -1.0 1.359375 -1.53125q0.875 -0.546875 1.984375 -0.546875q1.734375 0 2.796875 1.203125q1.0625 1.1875 1.0625 3.171875l0 0.09375q0 1.234375 -0.46875 2.21875q-0.46875 0.984375 -1.359375 1.53125q-0.875 0.546875 -2.015625 0.546875q-1.71875 0 -2.78125 -1.1875q-1.0625 -1.203125 -1.0625 -3.171875l0 -0.109375zm1.453125 0.171875q0 1.40625 0.640625 2.265625q0.65625 0.84375 1.75 0.84375q1.109375 0 1.75 -0.859375q0.65625 -0.859375 0.65625 -2.421875q0 -1.390625 -0.671875 -2.25q-0.65625 -0.859375 -1.75 -0.859375q-1.0625 0 -1.71875 0.859375q-0.65625 0.84375 -0.65625 2.421875zm15.203125 0q0 1.9375 -0.890625 3.125q-0.890625 1.171875 -2.390625 1.171875q-1.59375 0 -2.46875 -1.140625l-0.078125 0.984375l-1.328125 0l0 -12.0l1.453125 0l0 4.46875q0.875 -1.078125 2.40625 -1.078125q1.546875 0 2.421875 1.171875q0.875 1.15625 0.875 3.171875l0 0.125zm-1.4375 -0.15625q0 -1.484375 -0.578125 -2.28125q-0.5625 -0.8125 -1.640625 -0.8125q-1.421875 0 -2.046875 1.328125l0 3.65625q0.65625 1.328125 2.0625 1.328125q1.046875 0 1.625 -0.796875q0.578125 -0.8125 0.578125 -2.421875zm8.4765625 4.296875q-0.125 -0.25 -0.203125 -0.890625q-1.0 1.046875 -2.40625 1.046875q-1.25 0 -2.046875 -0.703125q-0.796875 -0.71875 -0.796875 -1.796875q0 -1.328125 1.0 -2.046875q1.0 -0.734375 2.828125 -0.734375l1.40625 0l0 -0.671875q0 -0.75 -0.453125 -1.203125q-0.453125 -0.453125 -1.34375 -0.453125q-0.765625 0 -1.296875 0.390625q-0.515625 0.390625 -0.515625 0.953125l-1.453125 0q0 -0.640625 0.4375 -1.21875q0.453125 -0.59375 1.21875 -0.9375q0.78125 -0.34375 1.703125 -0.34375q1.453125 0 2.28125 0.734375q0.828125 0.71875 0.859375 2.0l0 3.890625q0 1.171875 0.296875 1.859375l0 0.125l-1.515625 0zm-2.390625 -1.109375q0.671875 0 1.28125 -0.34375q0.609375 -0.359375 0.890625 -0.921875l0 -1.734375l-1.140625 0q-2.65625 0 -2.65625 1.5625q0 0.671875 0.453125 1.0625q0.453125 0.375 1.171875 0.375zm7.453125 1.109375l-1.453125 0l0 -12.0l1.453125 0l0 12.0z" fill-rule="nonzero"/><path fill="#000000" fill-opacity="0.0" d="m70.09449 305.37592l0 0c0 -15.980347 12.95462 -28.934967 28.93496 -28.934967l521.94104 0c7.6740723 0 15.033752 3.0484924 20.460144 8.4748535c5.4263306 5.426361 8.4748535 12.786072 8.4748535 20.460114l0 115.73636c0 15.980347 -12.954651 28.934967 -28.934998 28.934967l-521.94104 0c-15.980339 0 -28.93496 -12.95462 -28.93496 -28.934967z" fill-rule="evenodd"/><path stroke="#000000" stroke-width="1.0" stroke-linejoin="round" stroke-linecap="butt" d="m70.09449 305.37592l0 0c0 -15.980347 12.95462 -28.934967 28.93496 -28.934967l521.94104 0c7.6740723 0 15.033752 3.0484924 20.460144 8.4748535c5.4263306 5.426361 8.4748535 12.786072 8.4748535 20.460114l0 115.73636c0 15.980347 -12.954651 28.934967 -28.934998 28.934967l-521.94104 0c-15.980339 0 -28.93496 -12.95462 -28.93496 -28.934967z" fill-rule="evenodd"/><path fill="#000000" d="m345.09375 305.66632q-0.203125 1.796875 -1.328125 2.78125q-1.125 0.984375 -2.984375 0.984375q-2.015625 0 -3.234375 -1.4375q-1.203125 -1.453125 -1.203125 -3.875l0 -1.09375q0 -1.59375 0.5625 -2.796875q0.5625 -1.203125 1.59375 -1.84375q1.046875 -0.640625 2.421875 -0.640625q1.8125 0 2.90625 1.015625q1.09375 1.0 1.265625 2.796875l-1.5 0q-0.203125 -1.359375 -0.859375 -1.96875q-0.640625 -0.609375 -1.8125 -0.609375q-1.4375 0 -2.265625 1.0625q-0.8125 1.0625 -0.8125 3.015625l0 1.109375q0 1.84375 0.765625 2.9375q0.78125 1.09375 2.171875 1.09375q1.25 0 1.921875 -0.5625q0.671875 -0.5625 0.890625 -1.96875l1.5 0zm3.3984375 3.609375l-1.453125 0l0 -12.0l1.453125 0l0 12.0zm3.8828125 0l-1.453125 0l0 -8.453125l1.453125 0l0 8.453125zm-1.5625 -10.703125q0 -0.34375 0.203125 -0.578125q0.21875 -0.25 0.640625 -0.25q0.421875 0 0.640625 0.25q0.21875 0.234375 0.21875 0.59375q0 0.34375 -0.21875 0.578125q-0.21875 0.234375 -0.640625 0.234375q-0.421875 0 -0.640625 -0.234375q-0.203125 -0.234375 -0.203125 -0.59375zm7.3828125 10.859375q-1.71875 0 -2.796875 -1.125q-1.078125 -1.140625 -1.078125 -3.03125l0 -0.265625q0 -1.25 0.46875 -2.234375q0.484375 -1.0 1.34375 -1.546875q0.875 -0.5625 1.875 -0.5625q1.65625 0 2.5625 1.09375q0.921875 1.078125 0.921875 3.09375l0 0.609375l-5.734375 0q0.03125 1.25 0.734375 2.015625q0.703125 0.765625 1.78125 0.765625q0.765625 0 1.296875 -0.3125q0.53125 -0.3125 0.921875 -0.828125l0.890625 0.6875q-1.0625 1.640625 -3.1875 1.640625zm-0.1875 -7.578125q-0.875 0 -1.46875 0.640625q-0.59375 0.625 -0.734375 1.78125l4.234375 0l0 -0.109375q-0.0625 -1.109375 -0.59375 -1.703125q-0.53125 -0.609375 -1.4375 -0.609375zm6.5234375 -1.03125l0.046875 1.0625q0.96875 -1.21875 2.53125 -1.21875q2.671875 0 2.703125 3.015625l0 5.59375l-1.453125 0l0 -5.59375q0 -0.921875 -0.421875 -1.359375q-0.40625 -0.4375 -1.265625 -0.4375q-0.703125 0 -1.234375 0.375q-0.53125 0.375 -0.828125 0.984375l0 6.03125l-1.453125 0l0 -8.453125l1.375 0zm9.421875 -2.046875l0 2.046875l1.578125 0l0 1.109375l-1.578125 0l0 5.25q0 0.5 0.203125 0.765625q0.21875 0.25 0.71875 0.25q0.25 0 0.6875 -0.09375l0 1.171875q-0.5625 0.15625 -1.109375 0.15625q-0.96875 0 -1.46875 -0.578125q-0.484375 -0.59375 -0.484375 -1.671875l0 -5.25l-1.53125 0l0 -1.109375l1.53125 0l0 -2.046875l1.453125 0zm6.7734375 10.65625q-1.71875 0 -2.796875 -1.125q-1.078125 -1.140625 -1.078125 -3.03125l0 -0.265625q0 -1.25 0.46875 -2.234375q0.484375 -1.0 1.34375 -1.546875q0.875 -0.5625 1.875 -0.5625q1.65625 0 2.5625 1.09375q0.921875 1.078125 0.921875 3.09375l0 0.609375l-5.734375 0q0.03125 1.25 0.734375 2.015625q0.703125 0.765625 1.78125 0.765625q0.765625 0 1.296875 -0.3125q0.53125 -0.3125 0.921875 -0.828125l0.890625 0.6875q-1.0625 1.640625 -3.1875 1.640625zm-0.1875 -7.578125q-0.875 0 -1.46875 0.640625q-0.59375 0.625 -0.734375 1.78125l4.234375 0l0 -0.109375q-0.0625 -1.109375 -0.59375 -1.703125q-0.53125 -0.609375 -1.4375 -0.609375z" fill-rule="nonzero"/><path fill="#000000" fill-opacity="0.0" d="m112.59843 368.76904l0 0c0 -28.457886 23.06968 -51.527588 51.527565 -51.527588l0 0c13.665955 0 26.772186 5.4288025 36.435486 15.092102c9.663284 9.663269 15.092072 22.7695 15.092072 36.435486l0 0c0 28.457886 -23.069687 51.527557 -51.527557 51.527557l0 0c-28.457886 0 -51.527565 -23.069672 -51.527565 -51.527557z" fill-rule="evenodd"/><path stroke="#000000" stroke-width="1.0" stroke-linejoin="round" stroke-linecap="butt" d="m112.59843 368.76904l0 0c0 -28.457886 23.06968 -51.527588 51.527565 -51.527588l0 0c13.665955 0 26.772186 5.4288025 36.435486 15.092102c9.663284 9.663269 15.092072 22.7695 15.092072 36.435486l0 0c0 28.457886 -23.069687 51.527557 -51.527557 51.527557l0 0c-28.457886 0 -51.527565 -23.069672 -51.527565 -51.527557z" fill-rule="evenodd"/><path fill="#000000" d="m142.80165 372.91153q0.703125 0 1.234375 -0.421875q0.53125 -0.4375 0.59375 -1.078125l1.25 0q-0.03125 0.65625 -0.453125 1.265625q-0.421875 0.59375 -1.140625 0.953125q-0.703125 0.359375 -1.484375 0.359375q-1.578125 0 -2.515625 -1.046875q-0.9375 -1.0625 -0.9375 -2.890625l0 -0.21875q0 -1.140625 0.40625 -2.015625q0.421875 -0.875 1.203125 -1.359375q0.78125 -0.5 1.828125 -0.5q1.3125 0 2.171875 0.78125q0.859375 0.78125 0.921875 2.03125l-1.25 0q-0.0625 -0.75 -0.578125 -1.234375q-0.5 -0.484375 -1.265625 -0.484375q-1.0 0 -1.5625 0.734375q-0.546875 0.71875 -0.546875 2.09375l0 0.25q0 1.328125 0.546875 2.0625q0.546875 0.71875 1.578125 0.71875zm4.218506 -3.0q0 -1.140625 0.4375 -2.046875q0.453125 -0.921875 1.25 -1.40625q0.796875 -0.5 1.828125 -0.5q1.578125 0 2.546875 1.09375q0.984375 1.09375 0.984375 2.921875l0 0.09375q0 1.125 -0.4375 2.03125q-0.4375 0.890625 -1.25 1.390625q-0.796875 0.5 -1.84375 0.5q-1.5625 0 -2.546875 -1.09375q-0.96875 -1.09375 -0.96875 -2.890625l0 -0.09375zm1.328125 0.15625q0 1.28125 0.59375 2.0625q0.59375 0.78125 1.59375 0.78125q1.015625 0 1.609375 -0.78125q0.59375 -0.796875 0.59375 -2.21875q0 -1.28125 -0.609375 -2.0625q-0.59375 -0.796875 -1.59375 -0.796875q-0.984375 0 -1.59375 0.78125q-0.59375 0.78125 -0.59375 2.234375zm8.509689 2.703125l4.53125 0l0 1.078125l-6.15625 0l0 -0.96875l4.28125 -5.671875l-4.21875 0l0 -1.109375l5.875 0l0 0.9375l-4.3125 5.734375zm7.4512177 1.078125l-1.328125 0l0 -7.75l1.328125 0l0 7.75zm-1.421875 -9.796875q0 -0.328125 0.1875 -0.546875q0.203125 -0.21875 0.578125 -0.21875q0.390625 0 0.59375 0.21875q0.203125 0.21875 0.203125 0.546875q0 0.328125 -0.203125 0.546875q-0.203125 0.203125 -0.59375 0.203125q-0.375 0 -0.578125 -0.203125q-0.1875 -0.21875 -0.1875 -0.546875zm4.791092 2.046875l0.046875 0.984375q0.890625 -1.125 2.3125 -1.125q2.46875 0 2.484375 2.78125l0 5.109375l-1.328125 0l0 -5.125q0 -0.84375 -0.375 -1.234375q-0.375 -0.40625 -1.171875 -0.40625q-0.640625 0 -1.140625 0.34375q-0.484375 0.34375 -0.75 0.90625l0 5.515625l-1.328125 0l0 -7.75l1.25 0zm8.164825 0.9375q0.875 -1.078125 2.28125 -1.078125q2.46875 0 2.484375 2.78125l0 5.109375l-1.328125 0l0 -5.125q0 -0.84375 -0.375 -1.234375q-0.375 -0.40625 -1.171875 -0.40625q-0.640625 0 -1.140625 0.34375q-0.484375 0.34375 -0.75 0.90625l0 5.515625l-1.328125 0l0 -11.0l1.328125 0l0 4.1875zm11.525513 6.8125q-0.109375 -0.234375 -0.1875 -0.8125q-0.921875 0.953125 -2.203125 0.953125q-1.140625 0 -1.875 -0.640625q-0.734375 -0.65625 -0.734375 -1.640625q0 -1.21875 0.921875 -1.875q0.921875 -0.671875 2.578125 -0.671875l1.296875 0l0 -0.609375q0 -0.703125 -0.421875 -1.109375q-0.40625 -0.40625 -1.21875 -0.40625q-0.703125 0 -1.1875 0.359375q-0.484375 0.34375 -0.484375 0.859375l-1.328125 0q0 -0.578125 0.40625 -1.109375q0.421875 -0.546875 1.125 -0.859375q0.703125 -0.328125 1.546875 -0.328125q1.34375 0 2.09375 0.671875q0.765625 0.671875 0.796875 1.84375l0 3.5625q0 1.0625 0.265625 1.703125l0 0.109375l-1.390625 0zm-2.203125 -1.015625q0.625 0 1.1875 -0.3125q0.5625 -0.328125 0.8125 -0.84375l0 -1.578125l-1.046875 0q-2.421875 0 -2.421875 1.421875q0 0.625 0.40625 0.96875q0.421875 0.34375 1.0625 0.34375z" fill-rule="nonzero"/><path fill="#000000" fill-opacity="0.0" d="m504.34384 368.76904l0 0c0 -28.457886 23.069672 -51.527588 51.527557 -51.527588l0 0c13.665955 0 26.772217 5.4288025 36.435486 15.092102c9.663269 9.663269 15.092041 22.7695 15.092041 36.435486l0 0c0 28.457886 -23.069641 51.527557 -51.527527 51.527557l0 0c-28.457886 0 -51.527557 -23.069672 -51.527557 -51.527557z" fill-rule="evenodd"/><path stroke="#000000" stroke-width="1.0" stroke-linejoin="round" stroke-linecap="butt" d="m504.34384 368.76904l0 0c0 -28.457886 23.069672 -51.527588 51.527557 -51.527588l0 0c13.665955 0 26.772217 5.4288025 36.435486 15.092102c9.663269 9.663269 15.092041 22.7695 15.092041 36.435486l0 0c0 28.457886 -23.069641 51.527557 -51.527527 51.527557l0 0c-28.457886 0 -51.527557 -23.069672 -51.527557 -51.527557z" fill-rule="evenodd"/><path fill="#000000" d="m542.555 372.37903q0 -0.578125 -0.4375 -0.90625q-0.4375 -0.328125 -1.546875 -0.5625q-1.09375 -0.234375 -1.734375 -0.5625q-0.640625 -0.328125 -0.953125 -0.78125q-0.3125 -0.453125 -0.3125 -1.078125q0 -1.03125 0.875 -1.75q0.890625 -0.71875 2.25 -0.71875q1.4375 0 2.328125 0.75q0.90625 0.734375 0.90625 1.890625l-1.453125 0q0 -0.59375 -0.515625 -1.015625q-0.5 -0.4375 -1.265625 -0.4375q-0.78125 0 -1.234375 0.34375q-0.4375 0.34375 -0.4375 0.890625q0 0.53125 0.40625 0.796875q0.421875 0.265625 1.5 0.515625q1.078125 0.234375 1.75 0.578125q0.671875 0.328125 1.0 0.796875q0.328125 0.46875 0.328125 1.15625q0 1.125 -0.90625 1.8125q-0.90625 0.6875 -2.359375 0.6875q-1.015625 0 -1.796875 -0.359375q-0.78125 -0.359375 -1.21875 -1.0q-0.4375 -0.65625 -0.4375 -1.40625l1.4375 0q0.046875 0.734375 0.578125 1.15625q0.546875 0.421875 1.4375 0.421875q0.828125 0 1.3125 -0.328125q0.5 -0.328125 0.5 -0.890625zm8.546875 2.25q-0.125 -0.25 -0.203125 -0.890625q-1.0 1.046875 -2.40625 1.046875q-1.25 0 -2.046875 -0.703125q-0.796875 -0.71875 -0.796875 -1.796875q0 -1.328125 1.0 -2.046875q1.0 -0.734375 2.828125 -0.734375l1.40625 0l0 -0.671875q0 -0.75 -0.453125 -1.203125q-0.453125 -0.453125 -1.34375 -0.453125q-0.765625 0 -1.296875 0.390625q-0.515625 0.390625 -0.515625 0.953125l-1.453125 0q0 -0.640625 0.4375 -1.21875q0.453125 -0.59375 1.21875 -0.9375q0.78125 -0.34375 1.703125 -0.34375q1.453125 0 2.28125 0.734375q0.828125 0.71875 0.859375 2.0l0 3.890625q0 1.171875 0.296875 1.859375l0 0.125l-1.515625 0zm-2.390625 -1.109375q0.671875 0 1.28125 -0.34375q0.609375 -0.359375 0.890625 -0.921875l0 -1.734375l-1.140625 0q-2.65625 0 -2.65625 1.5625q0 0.671875 0.453125 1.0625q0.453125 0.375 1.171875 0.375zm7.453125 1.109375l-1.453125 0l0 -12.0l1.453125 0l0 12.0zm7.5234375 0q-0.125 -0.25 -0.203125 -0.890625q-1.0 1.046875 -2.40625 1.046875q-1.25 0 -2.046875 -0.703125q-0.796875 -0.71875 -0.796875 -1.796875q0 -1.328125 1.0 -2.046875q1.0 -0.734375 2.828125 -0.734375l1.40625 0l0 -0.671875q0 -0.75 -0.453125 -1.203125q-0.453125 -0.453125 -1.34375 -0.453125q-0.765625 0 -1.296875 0.390625q-0.515625 0.390625 -0.515625 0.953125l-1.453125 0q0 -0.640625 0.4375 -1.21875q0.453125 -0.59375 1.21875 -0.9375q0.78125 -0.34375 1.703125 -0.34375q1.453125 0 2.28125 0.734375q0.828125 0.71875 0.859375 2.0l0 3.890625q0 1.171875 0.296875 1.859375l0 0.125l-1.515625 0zm-2.390625 -1.109375q0.671875 0 1.28125 -0.34375q0.609375 -0.359375 0.890625 -0.921875l0 -1.734375l-1.140625 0q-2.65625 0 -2.65625 1.5625q0 0.671875 0.453125 1.0625q0.453125 0.375 1.171875 0.375zm3.390625 -10.640625q0 0.84375 -0.484375 1.375q-0.46875 0.515625 -1.1875 0.515625q-0.328125 0 -0.5625 -0.078125q-0.234375 -0.078125 -0.609375 -0.3125q-0.375 -0.25 -0.546875 -0.296875q-0.171875 -0.0625 -0.390625 -0.0625q-0.3125 0 -0.546875 0.25q-0.21875 0.25 -0.21875 0.625l-0.96875 -0.046875q0 -0.84375 0.46875 -1.390625q0.46875 -0.546875 1.203125 -0.546875q0.265625 0 0.484375 0.078125q0.21875 0.078125 0.59375 0.3125q0.375 0.21875 0.578125 0.296875q0.203125 0.0625 0.4375 0.0625q0.34375 0 0.5625 -0.265625q0.21875 -0.265625 0.21875 -0.609375l0.96875 0.09375zm2.109375 7.4375q0 -1.234375 0.484375 -2.21875q0.484375 -1.0 1.359375 -1.53125q0.875 -0.546875 1.984375 -0.546875q1.734375 0 2.796875 1.203125q1.0625 1.1875 1.0625 3.171875l0 0.09375q0 1.234375 -0.46875 2.21875q-0.46875 0.984375 -1.359375 1.53125q-0.875 0.546875 -2.015625 0.546875q-1.71875 0 -2.78125 -1.1875q-1.0625 -1.203125 -1.0625 -3.171875l0 -0.109375zm1.453125 0.171875q0 1.40625 0.640625 2.265625q0.65625 0.84375 1.75 0.84375q1.109375 0 1.75 -0.859375q0.65625 -0.859375 0.65625 -2.421875q0 -1.390625 -0.671875 -2.25q-0.65625 -0.859375 -1.75 -0.859375q-1.0625 0 -1.71875 0.859375q-0.65625 0.84375 -0.65625 2.421875z" fill-rule="nonzero"/><path fill="#000000" fill-opacity="0.0" d="m308.47113 317.24146l103.055115 0l0 103.055145l-103.055115 0z" fill-rule="evenodd"/><path stroke="#000000" stroke-width="1.0" stroke-linejoin="round" stroke-linecap="butt" d="m308.47113 317.24146l103.055115 0l0 103.055145l-103.055115 0z" fill-rule="evenodd"/><path fill="#000000" d="m322.3151 373.59778q0.78125 0 1.359375 -0.46875q0.578125 -0.46875 0.640625 -1.171875l1.359375 0q-0.03125 0.734375 -0.5 1.390625q-0.453125 0.65625 -1.234375 1.046875q-0.765625 0.390625 -1.625 0.390625q-1.71875 0 -2.75 -1.15625q-1.015625 -1.15625 -1.015625 -3.15625l0 -0.234375q0 -1.234375 0.453125 -2.1875q0.453125 -0.96875 1.296875 -1.5q0.859375 -0.53125 2.015625 -0.53125q1.421875 0 2.359375 0.859375q0.9375 0.84375 1.0 2.203125l-1.359375 0q-0.0625 -0.828125 -0.625 -1.34375q-0.5625 -0.53125 -1.375 -0.53125q-1.109375 0 -1.71875 0.796875q-0.59375 0.78125 -0.59375 2.28125l0 0.28125q0 1.453125 0.59375 2.25q0.609375 0.78125 1.71875 0.78125zm10.203125 1.03125q-0.125 -0.25 -0.203125 -0.890625q-1.0 1.046875 -2.40625 1.046875q-1.25 0 -2.046875 -0.703125q-0.796875 -0.71875 -0.796875 -1.796875q0 -1.328125 1.0 -2.046875q1.0 -0.734375 2.828125 -0.734375l1.40625 0l0 -0.671875q0 -0.75 -0.453125 -1.203125q-0.453125 -0.453125 -1.34375 -0.453125q-0.765625 0 -1.296875 0.390625q-0.515625 0.390625 -0.515625 0.953125l-1.453125 0q0 -0.640625 0.4375 -1.21875q0.453125 -0.59375 1.21875 -0.9375q0.78125 -0.34375 1.703125 -0.34375q1.453125 0 2.28125 0.734375q0.828125 0.71875 0.859375 2.0l0 3.890625q0 1.171875 0.296875 1.859375l0 0.125l-1.515625 0zm-2.390625 -1.109375q0.671875 0 1.28125 -0.34375q0.609375 -0.359375 0.890625 -0.921875l0 -1.734375l-1.140625 0q-2.65625 0 -2.65625 1.5625q0 0.671875 0.453125 1.0625q0.453125 0.375 1.171875 0.375zm7.453125 1.109375l-1.453125 0l0 -8.453125l1.453125 0l0 8.453125zm-1.5625 -10.703125q0 -0.34375 0.203125 -0.578125q0.21875 -0.25 0.640625 -0.25q0.421875 0 0.640625 0.25q0.21875 0.234375 0.21875 0.59375q0 0.34375 -0.21875 0.578125q-0.21875 0.234375 -0.640625 0.234375q-0.421875 0 -0.640625 -0.234375q-0.203125 -0.234375 -0.203125 -0.59375zm6.7109375 5.328125l1.875 -3.078125l1.6875 0l-2.765625 4.171875l2.84375 4.28125l-1.671875 0l-1.953125 -3.171875l-1.953125 3.171875l-1.671875 0l2.84375 -4.28125l-2.765625 -4.171875l1.671875 0l1.859375 3.078125zm10.3046875 5.375q-0.125 -0.25 -0.203125 -0.890625q-1.0 1.046875 -2.40625 1.046875q-1.25 0 -2.046875 -0.703125q-0.796875 -0.71875 -0.796875 -1.796875q0 -1.328125 1.0 -2.046875q1.0 -0.734375 2.828125 -0.734375l1.40625 0l0 -0.671875q0 -0.75 -0.453125 -1.203125q-0.453125 -0.453125 -1.34375 -0.453125q-0.765625 0 -1.296875 0.390625q-0.515625 0.390625 -0.515625 0.953125l-1.453125 0q0 -0.640625 0.4375 -1.21875q0.453125 -0.59375 1.21875 -0.9375q0.78125 -0.34375 1.703125 -0.34375q1.453125 0 2.28125 0.734375q0.828125 0.71875 0.859375 2.0l0 3.890625q0 1.171875 0.296875 1.859375l0 0.125l-1.515625 0zm-2.390625 -1.109375q0.671875 0 1.28125 -0.34375q0.609375 -0.359375 0.890625 -0.921875l0 -1.734375l-1.140625 0q-2.65625 0 -2.65625 1.5625q0 0.671875 0.453125 1.0625q0.453125 0.375 1.171875 0.375zm9.7890625 -3.515625q0 -1.765625 0.46875 -3.390625q0.46875 -1.625 1.40625 -2.953125q0.9375 -1.328125 1.953125 -1.875l0.296875 0.953125q-1.140625 0.875 -1.875 2.671875q-0.734375 1.796875 -0.796875 4.03125l-0.015625 0.65625q0 3.015625 1.109375 5.25q0.65625 1.328125 1.578125 2.078125l-0.296875 0.875q-1.046875 -0.578125 -1.984375 -1.9375q-1.84375 -2.65625 -1.84375 -6.359375zm10.734375 4.625q-0.125 -0.25 -0.203125 -0.890625q-1.0 1.046875 -2.40625 1.046875q-1.25 0 -2.046875 -0.703125q-0.796875 -0.71875 -0.796875 -1.796875q0 -1.328125 1.0 -2.046875q1.0 -0.734375 2.828125 -0.734375l1.40625 0l0 -0.671875q0 -0.75 -0.453125 -1.203125q-0.453125 -0.453125 -1.34375 -0.453125q-0.765625 0 -1.296875 0.390625q-0.515625 0.390625 -0.515625 0.953125l-1.453125 0q0 -0.640625 0.4375 -1.21875q0.453125 -0.59375 1.21875 -0.9375q0.78125 -0.34375 1.703125 -0.34375q1.453125 0 2.28125 0.734375q0.828125 0.71875 0.859375 2.0l0 3.890625q0 1.171875 0.296875 1.859375l0 0.125l-1.515625 0zm-2.390625 -1.109375q0.671875 0 1.28125 -0.34375q0.609375 -0.359375 0.890625 -0.921875l0 -1.734375l-1.140625 0q-2.65625 0 -2.65625 1.5625q0 0.671875 0.453125 1.0625q0.453125 0.375 1.171875 0.375zm5.53125 -3.1875q0 -1.953125 0.921875 -3.125q0.921875 -1.1875 2.40625 -1.1875q1.484375 0 2.359375 1.015625l0 -4.40625l1.4375 0l0 12.0l-1.328125 0l-0.0625 -0.90625q-0.875 1.0625 -2.421875 1.0625q-1.46875 0 -2.390625 -1.203125q-0.921875 -1.203125 -0.921875 -3.140625l0 -0.109375zm1.4375 0.15625q0 1.4375 0.59375 2.25q0.59375 0.8125 1.640625 0.8125q1.375 0 2.015625 -1.234375l0 -3.875q-0.65625 -1.203125 -2.0 -1.203125q-1.0625 0 -1.65625 0.828125q-0.59375 0.8125 -0.59375 2.421875zm9.2890625 -4.3125l0.046875 0.9375q0.921875 -1.09375 2.5 -1.09375q1.78125 0 2.421875 1.359375q0.421875 -0.609375 1.09375 -0.984375q0.671875 -0.375 1.59375 -0.375q2.78125 0 2.828125 2.9375l0 5.671875l-1.4375 0l0 -5.578125q0 -0.90625 -0.421875 -1.359375q-0.40625 -0.453125 -1.390625 -0.453125q-0.796875 0 -1.328125 0.484375q-0.53125 0.484375 -0.625 1.296875l0 5.609375l-1.453125 0l0 -5.546875q0 -1.84375 -1.796875 -1.84375q-1.421875 0 -1.953125 1.21875l0 6.171875l-1.4375 0l0 -8.453125l1.359375 0zm16.007812 3.90625q0 1.75 -0.46875 3.359375q-0.453125 1.59375 -1.390625 2.9375q-0.9375 1.359375 -1.96875 1.921875l-0.3125 -0.875q1.203125 -0.921875 1.9375 -2.859375q0.734375 -1.953125 0.75 -4.328125l0 -0.25q0 -1.640625 -0.34375 -3.046875q-0.34375 -1.40625 -0.96875 -2.515625q-0.609375 -1.125 -1.375 -1.75l0.3125 -0.890625q1.03125 0.578125 1.953125 1.921875q0.9375 1.328125 1.40625 2.9375q0.46875 1.609375 0.46875 3.4375z" fill-rule="nonzero"/><path fill="#000000" fill-opacity="0.0" d="m227.16536 351.32022l17.448807 -17.448822l0 8.724396l52.346466 0l0 17.448822l-52.346466 0l0 8.724426z" fill-rule="evenodd"/><path stroke="#000000" stroke-width="1.0" stroke-linejoin="round" stroke-linecap="butt" d="m227.16536 351.32022l17.448807 -17.448822l0 8.724396l52.346466 0l0 17.448822l-52.346466 0l0 8.724426z" fill-rule="evenodd"/><path fill="#000000" fill-opacity="0.0" d="m296.95932 386.21783l-17.448822 -17.448792l0 8.724396l-52.34645 0l0 17.448822l52.34645 0l0 8.724396z" fill-rule="evenodd"/><path stroke="#000000" stroke-width="1.0" stroke-linejoin="round" stroke-linecap="butt" d="m296.95932 386.21783l-17.448822 -17.448792l0 8.724396l-52.34645 0l0 17.448822l52.34645 0l0 8.724396z" fill-rule="evenodd"/><path fill="#000000" fill-opacity="0.0" d="m423.03806 351.32022l17.448822 -17.448822l0 8.724396l52.346466 0l0 17.448822l-52.346466 0l0 8.724426z" fill-rule="evenodd"/><path stroke="#000000" stroke-width="1.0" stroke-linejoin="round" stroke-linecap="butt" d="m423.03806 351.32022l17.448822 -17.448822l0 8.724396l52.346466 0l0 17.448822l-52.346466 0l0 8.724426z" fill-rule="evenodd"/><path fill="#000000" fill-opacity="0.0" d="m492.83203 386.21783l-17.448822 -17.448792l0 8.724396l-52.346466 0l0 17.448822l52.346466 0l0 8.724396z" fill-rule="evenodd"/><path stroke="#000000" stroke-width="1.0" stroke-linejoin="round" stroke-linecap="butt" d="m492.83203 386.21783l-17.448822 -17.448792l0 8.724396l-52.346466 0l0 17.448822l52.346466 0l0 8.724396z" fill-rule="evenodd"/></g></svg>